<svg xmlns="http://www.w3.org/2000/svg" width="256" height="256" viewBox="0 0 256 256">
    <g fill="none" fill-rule="evenodd">
        <g fill="#FFF" fill-rule="nonzero">
            <path d="M237.714 0H18.23C8.17 0 0 8.286 0 18.457v219.086C0 247.714 8.171 256 18.229 256h219.485c10.057 0 18.286-8.286 18.286-18.457V18.457C256 8.286 247.771 0 237.714 0zM77.43 219.429h-38V97.257h38V219.43zM58.4 80.57c-12.171 0-22-9.885-22-22 0-12.114 9.829-22 22-22 12.115 0 22 9.886 22 22 0 12.172-9.829 22-22 22zM219.6 219.43h-37.943l-.01-62.52c-.128-13.591-1.663-29.31-19.704-29.31-19.277 0-22.638 14.668-22.794 30.178l-.006 61.652H101.2V97.257h36.4v16.686h.514c5.086-9.6 17.486-19.714 35.943-19.714 37.76 0 45.296 24.477 45.537 56.589l.006 68.61z"/>
        </g>
    </g>
</svg>
