<?xml version="1.0" encoding="utf-8"?>
<!-- Generator: Adobe Illustrator 25.3.1, SVG Export Plug-In . SVG Version: 6.00 Build 0)  -->
<svg version="1.1" id="Layer_1" xmlns="http://www.w3.org/2000/svg" xmlns:xlink="http://www.w3.org/1999/xlink" x="0px" y="0px"
	 viewBox="0 0 51 50" enable-background="new 0 0 51 50" xml:space="preserve">
<g>
	<g>
		<g>
			<g>
				<g>
					<path fill-rule="evenodd" clip-rule="evenodd" fill="#FFFFFF" d="M50.1,26.4l-7.2,18.9c-0.4,1-1.3,1.6-2.4,1.6H10.6
						c-1.1-0.1-2-0.7-2.4-1.6L0.9,26.4c-0.3-1-0.3-2.1,0-3.1L8.1,4.4c0.4-1,1.3-1.6,2.4-1.6h29.9c1,0,2,0.7,2.4,1.7l7.2,18.9
						C50.4,24.3,50.4,25.4,50.1,26.4z M51.3,22.9L44.1,4l0,0c-0.6-1.5-2-2.4-3.6-2.4H10.5c-1.6,0-3,1-3.6,2.5l-7.2,19
						c-0.4,1.3-0.4,2.6,0,3.9l0,0l7.2,18.9c0.6,1.4,2,2.4,3.6,2.5l0,0h29.9c1.6,0,3-1,3.6-2.5l7.3-19l0,0
						C51.8,25.5,51.8,24.2,51.3,22.9l-0.6,0.2C50.7,23.2,51.3,22.9,51.3,22.9z"/>
					<g>
						<path fill="#FFFFFF" d="M35.7,13.3H15.2c-0.9,0-1.7,0.8-1.7,1.7V35c0,0.9,0.8,1.7,1.7,1.7h20.5c0.9,0,1.7-0.8,1.7-1.7V15
							C37.5,14,36.7,13.3,35.7,13.3L35.7,13.3z M20.8,33.4h-3.5V22.2h3.5L20.8,33.4L20.8,33.4z M19,20.7c-1.1,0-2.1-0.9-2.1-2
							s0.9-2,2.1-2c1.1,0,2.1,0.9,2.1,2C21.1,19.8,20.1,20.7,19,20.7z M34.1,33.4h-3.5l0-5.7c0-1.2-0.2-2.7-1.8-2.7
							c-1.8,0-2.1,1.3-2.1,2.8v5.6H23V22.2h3.4v1.5h0c0.5-0.9,1.6-1.8,3.4-1.8c3.5,0,4.2,2.2,4.3,5.2V33.4L34.1,33.4z"/>
					</g>
				</g>
			</g>
		</g>
	</g>
</g>
</svg>
