<svg xmlns="http://www.w3.org/2000/svg" width="53.097" height="48.395" viewBox="0 0 53.097 48.395">
  <defs>
    <style>
      .cls-1 {
        fill: none;
        stroke: #3cbfae;
        stroke-width: 2px;
      }

      .cls-2 {
        fill: #3cbfae;
      }
    </style>
  </defs>
  <g id="Group_8015" data-name="Group 8015" transform="translate(-152.943 -17394.506)">
    <path id="Path_4802" data-name="Path 4802" class="cls-1" d="M50.662,21.416,43.427,2.088A3.379,3.379,0,0,0,40.4,0H10.494A3.379,3.379,0,0,0,7.47,2.088L.272,21.416a5.493,5.493,0,0,0,0,3.563L7.506,44.307a3.379,3.379,0,0,0,3.023,2.088H40.44a3.379,3.379,0,0,0,3.023-2.088L50.7,24.979a5.742,5.742,0,0,0-.036-3.563" transform="translate(154.025 17395.506)"/>
    <path id="Path_5306" data-name="Path 5306" class="cls-2" d="M-890.7,12.5a10.88,10.88,0,0,0,7.351-2.207,5.392,5.392,0,0,1-4.836-3.617h2.127l.072-.134a5.339,5.339,0,0,1-4.06-5.072l2.161.609.086-.138a5.377,5.377,0,0,1-2.043-3.13,5.286,5.286,0,0,1,.545-3.734A15.006,15.006,0,0,0-878.518.518a5.217,5.217,0,0,1,1.661-5.126,5.169,5.169,0,0,1,6.9.043.738.738,0,0,0,.843.206l2.657-.97c-.053.624-.31.981-2.092,2.764l2.729-.721.115.092c-.652.667-1.265,1.381-1.973,1.983a1.318,1.318,0,0,0-.526,1.13,14.868,14.868,0,0,1-10.078,14.1,14.94,14.94,0,0,1-12.058-1.174,2.557,2.557,0,0,1-.282-.187C-890.645,12.639-890.651,12.6-890.7,12.5Z" transform="translate(1058.335 17414.896)"/>
  </g>
</svg>
