<svg xmlns="http://www.w3.org/2000/svg" width="256" height="256" viewBox="0 0 256 256">
    <g fill="none" fill-rule="evenodd">
        <g fill="#FFF" fill-rule="nonzero">
            <path d="M80.68 238c96.341 0 149.448-79.924 149.448-149.306 0-2.38 0-4.42-.34-6.802C240 74.41 249.19 65.227 256 54.684c-9.532 4.081-19.745 7.142-30.298 8.163 10.894-6.462 19.404-17.006 23.15-28.91-10.214 6.123-21.448 10.204-33.363 12.585-19.744-21.087-53.106-22.107-74.212-2.381-13.617 12.584-19.405 31.97-14.98 50.335C84.086 92.436 44.597 72.37 18.044 39.72c-13.958 23.807-6.809 54.756 16.34 70.06-8.17-.34-16.68-2.38-23.83-6.461v.68c0 24.828 17.702 46.254 41.873 51.356-7.83 2.04-16 2.38-23.83 1.02 6.808 21.427 26.553 36.051 49.021 36.391-18.723 14.625-41.532 22.447-65.021 22.447-4.085 0-8.17-.34-12.596-1.02C24.17 229.838 52.426 238 80.68 238"/>
        </g>
    </g>
</svg>
