<svg xmlns="http://www.w3.org/2000/svg" width="256" height="256" viewBox="0 0 256 256">
    <g fill="none" fill-rule="evenodd">
        <g fill="#FFF" fill-rule="nonzero">
            <path d="M40.707 19.494l86.973 86.973 86.975-86.973c1.894-1.894 4.928-1.95 6.89-.172l.181.172 14.143 14.142c1.952 1.953 1.952 5.118 0 7.071l-86.975 86.973 86.975 86.975c1.952 1.953 1.952 5.119 0 7.071l-14.143 14.143c-1.952 1.952-5.118 1.952-7.07 0l-86.976-86.975-86.973 86.975c-1.893 1.893-4.928 1.95-6.89.172l-.181-.172-14.142-14.143c-1.953-1.952-1.953-5.118 0-7.07l86.973-86.976-86.973-86.973c-1.953-1.953-1.953-5.118 0-7.071l14.142-14.142c1.953-1.953 5.118-1.953 7.071 0z"/>
        </g>
    </g>
</svg>
