<svg xmlns="http://www.w3.org/2000/svg" width="256" height="256" viewBox="0 0 256 256">
    <g fill="none" fill-rule="evenodd">
        <g fill="#FFF" fill-rule="nonzero">
            <path d="M217.973 112.783c2.703-2.693 2.703-7.047 0-9.682l-4.081-4.068c-2.702-2.692-7.072-2.692-9.774 0l-66.345 66.397L138 27.875c0-3.781-3.105-6.875-6.899-6.875h-5.749c-3.794 0-6.899 3.094-6.899 6.875l-.226 137.555-66.345-66.454c-2.702-2.692-7.072-2.692-9.774 0l-4.081 4.068c-2.703 2.692-2.703 7.046 0 9.739l85.086 85.072c2.702 2.693 7.072 2.693 9.774 0l85.086-85.072zM238 229.125c0 3.712-3.094 6.75-6.875 6.75H24.875c-3.781 0-6.875-3.038-6.875-6.75v-4.5c0-3.713 3.094-6.75 6.875-6.75h206.25c3.781 0 6.875 3.037 6.875 6.75v4.5z"/>
        </g>
    </g>
</svg>
