<svg id="Group_7294" data-name="Group 7294" xmlns="http://www.w3.org/2000/svg" width="30.283" height="25.957" viewBox="0 0 30.283 25.957">
  <g id="Group_6650" data-name="Group 6650" transform="translate(0 0)">
    <path id="Path_4907" data-name="Path 4907" d="M-913.746,91.068h-1.082a.524.524,0,0,0-.389.152.524.524,0,0,0-.152.388v5.408a2.6,2.6,0,0,1-.794,1.91,2.6,2.6,0,0,1-1.91.794h-14.061a2.6,2.6,0,0,1-1.91-.794,2.6,2.6,0,0,1-.794-1.91V82.957a2.6,2.6,0,0,1,.794-1.909,2.6,2.6,0,0,1,1.91-.794h11.9a.527.527,0,0,0,.389-.152.527.527,0,0,0,.152-.389V78.63a.526.526,0,0,0-.152-.388.526.526,0,0,0-.389-.152h-11.9a4.688,4.688,0,0,0-3.439,1.428A4.688,4.688,0,0,0-937,82.957v14.06a4.687,4.687,0,0,0,1.428,3.439,4.689,4.689,0,0,0,3.439,1.428h14.06a4.688,4.688,0,0,0,3.439-1.428,4.686,4.686,0,0,0,1.428-3.439V91.61a.526.526,0,0,0-.152-.389A.525.525,0,0,0-913.746,91.068Z" transform="translate(937 -75.927)" fill="#3cbfae"/>
    <path id="Path_4908" data-name="Path 4908" d="M-723.046,41.868a1.04,1.04,0,0,0-.76-.321h-8.652a1.039,1.039,0,0,0-.76.321,1.04,1.04,0,0,0-.321.76,1.04,1.04,0,0,0,.321.761l2.974,2.974-11.018,11.018a.534.534,0,0,0-.169.388.535.535,0,0,0,.169.389l1.927,1.926a.535.535,0,0,0,.389.169.534.534,0,0,0,.389-.169l11.018-11.018,2.974,2.974a1.04,1.04,0,0,0,.76.321,1.04,1.04,0,0,0,.761-.321,1.039,1.039,0,0,0,.321-.76V42.628A1.039,1.039,0,0,0-723.046,41.868Z" transform="translate(753.008 -41.547)" fill="#3cbfae"/>
  </g>
</svg>
