<?xml version="1.0" encoding="utf-8"?>
<!-- Generator: Adobe Illustrator 25.4.0, SVG Export Plug-In . SVG Version: 6.00 Build 0)  -->
<svg version="1.1" id="Layer_1" xmlns="http://www.w3.org/2000/svg" xmlns:xlink="http://www.w3.org/1999/xlink" x="0px" y="0px"
	 viewBox="0 0 48 64" style="enable-background:new 0 0 48 64;" xml:space="preserve">
<g>
	<path class="st0" d="M28,17V0H3C1.3,0,0,1.3,0,3v58c0,1.7,1.3,3,3,3h42c1.7,0,3-1.3,3-3V20H31C29.3,20,28,18.7,28,17z M12.6,46.6
		H10v-4.9H6.2v4.9H3.6V35.2h2.6v4.5H10v-4.5h2.6V46.6z M22.3,37.2h-2.8v9.4H17v-9.4h-2.8v-2h8.1V37.2z M38.3,35.2h2.6v9.4h4.2v2
		h-6.8V35.2z M35.8,35.2v11.4h-2.4v-5.4c0-0.4,0-0.8,0-1.2c0-0.5,0-0.9,0-1.3c0-0.4,0-0.7,0-1h-0.1L31,46.6h-2.4l-2.4-9h-0.1
		c0,0.2,0,0.5,0,1c0,0.4,0,0.9,0.1,1.4c0,0.5,0,0.9,0,1.3v5.3h-2.3V35.2h3.5l2.4,8.7h0l2.4-8.7H35.8z"/>
	<path class="st0" d="M47.1,13.3L34.9,0.9C34.3,0.3,33.6,0,32.8,0H32v16.2h16v-0.8C48,14.7,47.7,13.9,47.1,13.3z"/>
</g>
</svg>
