<svg id="Group_7318" data-name="Group 7318" xmlns="http://www.w3.org/2000/svg" xmlns:xlink="http://www.w3.org/1999/xlink" width="62.384" height="55.606" viewBox="0 0 62.384 55.606">
  <defs>
    <clipPath id="clip-path">
      <path id="Path_4621" data-name="Path 4621" d="M0,32.866H62.384V-22.74H0Z" transform="translate(0 22.74)" fill="#3cbfae"/>
    </clipPath>
  </defs>
  <g id="Group_6413" data-name="Group 6413" clip-path="url(#clip-path)">
    <g id="Group_6409" data-name="Group 6409" transform="translate(24.501 0.097)">
      <path id="Path_4617" data-name="Path 4617" d="M19.984,18.45l-7.37-3.277a1.443,1.443,0,0,1-.856-1.318V11.831a10.745,10.745,0,0,0,4.067-8.414V.566a2.627,2.627,0,0,0,1.357-2.3v-.276A10.772,10.772,0,0,0,6.422-12.766H3.711A10.772,10.772,0,0,0-7.049-2.007V.5A2.664,2.664,0,0,0-6.036,2.634a2.827,2.827,0,0,0,.342.223v.56a10.739,10.739,0,0,0,4.069,8.414v2.025a1.445,1.445,0,0,1-.858,1.318l-7.37,3.277a6.7,6.7,0,0,0-3.974,6.116V41.377a1.27,1.27,0,0,0,1.269,1.269,1.271,1.271,0,0,0,1.269-1.269V24.566a4.3,4.3,0,0,1,.024-.438l3.4,3.4A2.778,2.778,0,0,1-7.049,29.5V41.377A1.268,1.268,0,0,0-5.78,42.647a1.267,1.267,0,0,0,1.267-1.269V29.5A5.3,5.3,0,0,0-6.075,25.73l-4.049-4.047a4.141,4.141,0,0,1,1.3-.915l7.245-3.22L3.8,22.923V41.377a1.269,1.269,0,0,0,2.538,0V22.923l5.372-5.375,7.248,3.22a4.131,4.131,0,0,1,1.3.915L16.206,25.73A5.309,5.309,0,0,0,14.643,29.5V41.377a1.269,1.269,0,0,0,2.538,0V29.5A2.786,2.786,0,0,1,18,27.525l3.4-3.4a4.3,4.3,0,0,1,.024.438V41.377a1.268,1.268,0,1,0,2.536,0V24.566a6.7,6.7,0,0,0-3.974-6.116M-3.156,3.417V2.845a7.49,7.49,0,0,0,2.3-1.494A1.27,1.27,0,0,0-.781-.442,1.27,1.27,0,0,0-2.574-.513,4.564,4.564,0,0,1-4.457.612a.228.228,0,0,1-.034,0A.288.288,0,0,1-4.513.5V-2.007a8.232,8.232,0,0,1,8.223-8.221H6.422a8.23,8.23,0,0,1,8.221,8.221v.276a.079.079,0,0,1-.059.083C6.99-.146,3.18-2.975,1.9-4.259a1.272,1.272,0,0,0-1.795,0,1.272,1.272,0,0,0,0,1.795C4.041,1.473,9.787,1.544,13.286,1.123V3.417a8.221,8.221,0,0,1-16.442,0M5.065,14.176A10.69,10.69,0,0,0,9.22,13.34v.516a3.967,3.967,0,0,0,.562,2.032L5.065,20.6.351,15.888a3.971,3.971,0,0,0,.56-2.032V13.34a10.69,10.69,0,0,0,4.155.836" transform="translate(13.827 12.766)" fill="#3cbfae"/>
    </g>
    <g id="Group_6410" data-name="Group 6410" transform="translate(24.404)">
      <path id="Path_4618" data-name="Path 4618" d="M21.64,32.866A1.369,1.369,0,0,1,20.273,31.5V14.687c0-.068,0-.142,0-.218l-3.25,3.247a2.686,2.686,0,0,0-.79,1.91V31.5a1.366,1.366,0,1,1-2.731,0V19.627a5.4,5.4,0,0,1,1.589-3.842L19.068,11.8a4.045,4.045,0,0,0-1.2-.824L10.68,7.787l-5.3,5.3V31.5a1.366,1.366,0,1,1-2.731,0V13.086l-5.3-5.3L-9.833,10.98a4.056,4.056,0,0,0-1.2.824l3.981,3.981a5.389,5.389,0,0,1,1.592,3.842V31.5A1.369,1.369,0,0,1-6.83,32.866,1.369,1.369,0,0,1-8.2,31.5V19.627a2.676,2.676,0,0,0-.79-1.91l-3.247-3.247c0,.076-.007.149-.007.218V31.5a1.369,1.369,0,0,1-1.367,1.367A1.367,1.367,0,0,1-14.973,31.5V14.687a6.793,6.793,0,0,1,4.032-6.2l7.37-3.277a1.344,1.344,0,0,0,.8-1.228V2A10.811,10.811,0,0,1-6.84-6.462v-.5a2.367,2.367,0,0,1-.306-.2A2.764,2.764,0,0,1-8.2-9.374v-2.509A10.87,10.87,0,0,1,2.66-22.74H5.372A10.87,10.87,0,0,1,16.229-11.883v.276a2.717,2.717,0,0,1-1.357,2.352v2.793A10.811,10.811,0,0,1,10.805,2V3.98a1.342,1.342,0,0,0,.8,1.228l7.37,3.277a6.8,6.8,0,0,1,4.032,6.2V31.5a1.369,1.369,0,0,1-1.367,1.367M20.422,14.037l.022.205a4.269,4.269,0,0,1,.024.445V31.5a1.171,1.171,0,1,0,2.343,0V14.687a6.6,6.6,0,0,0-3.917-6.025l-7.37-3.277A1.542,1.542,0,0,1,10.61,3.98V1.908l.037-.029a10.613,10.613,0,0,0,4.03-8.341v-2.9l.051-.029a2.528,2.528,0,0,0,1.306-2.211v-.276A10.674,10.674,0,0,0,5.372-22.544H2.66A10.674,10.674,0,0,0-8-11.883v2.509A2.567,2.567,0,0,0-7.026-7.32a2.48,2.48,0,0,0,.33.213l.051.027v.619a10.621,10.621,0,0,0,4.03,8.341l.037.029V3.98a1.542,1.542,0,0,1-.915,1.406l-7.37,3.277a6.6,6.6,0,0,0-3.915,6.025V31.5a1.171,1.171,0,0,0,1.169,1.171A1.173,1.173,0,0,0-12.437,31.5V14.687c0-.134.01-.281.024-.445l.022-.205,3.543,3.541A2.884,2.884,0,0,1-8,19.627V31.5A1.173,1.173,0,0,0-6.83,32.67,1.173,1.173,0,0,0-5.659,31.5V19.627a5.205,5.205,0,0,0-1.536-3.7l-4.115-4.115.066-.071A4.229,4.229,0,0,1-9.911,10.8L-2.6,7.555l5.451,5.451V31.5a1.17,1.17,0,1,0,2.34,0V13.005l5.451-5.451.061.027,7.248,3.22a4.207,4.207,0,0,1,1.33.934l.068.071-4.118,4.115a5.205,5.205,0,0,0-1.536,3.7V31.5a1.171,1.171,0,1,0,2.343,0V19.627a2.876,2.876,0,0,1,.849-2.049ZM4.017,10.863-.822,6.024l.039-.064A3.9,3.9,0,0,0-.235,3.98V3.314l.134.059A10.594,10.594,0,0,0,4.017,4.2a10.6,10.6,0,0,0,4.115-.827l.137-.059V3.98A3.89,3.89,0,0,0,8.815,5.96l.039.064ZM-.578,5.995l4.595,4.592L8.609,5.995A4.06,4.06,0,0,1,8.074,3.98V3.608A10.756,10.756,0,0,1,4.017,4.4,10.728,10.728,0,0,1-.04,3.608V3.98A4.07,4.07,0,0,1-.578,5.995M4.017,1.86A8.33,8.33,0,0,1-4.3-6.462V-7.1l.061-.024A7.367,7.367,0,0,0-1.969-8.6a1.159,1.159,0,0,0,.377-.812,1.159,1.159,0,0,0-.311-.841,1.17,1.17,0,0,0-1.653-.066A4.648,4.648,0,0,1-5.48-9.171l-.108.02-.042-.066a.419.419,0,0,1-.029-.156v-2.509A8.33,8.33,0,0,1,2.66-20.2H5.372a8.33,8.33,0,0,1,8.319,8.321v.276a.176.176,0,0,1-.134.179C5.912-9.917,2.073-12.771.777-14.067a1.173,1.173,0,0,0-1.655,0,1.166,1.166,0,0,0-.342.827,1.171,1.171,0,0,0,.342.829c3.988,3.988,9.923,3.942,13.1,3.56l.11-.012v2.4A8.33,8.33,0,0,1,4.017,1.86M-4.109-6.965v.5A8.136,8.136,0,0,0,4.017,1.664,8.134,8.134,0,0,0,12.14-6.462V-8.643c-3.242.374-9.155.372-13.156-3.631a1.348,1.348,0,0,1-.4-.966,1.356,1.356,0,0,1,.4-.966,1.366,1.366,0,0,1,1.929,0c1.274,1.274,5.047,4.074,12.583,2.59v-.267a8.136,8.136,0,0,0-8.126-8.126H2.66a8.134,8.134,0,0,0-8.123,8.126v2.5A4.553,4.553,0,0,0-3.69-10.462a1.372,1.372,0,0,1,1.932.076A1.362,1.362,0,0,1-1.4-9.4a1.362,1.362,0,0,1-.438.949A7.655,7.655,0,0,1-4.109-6.965m-1.4-2.308,0,.007,0-.007Z" transform="translate(14.973 22.74)" fill="#3cbfae"/>
    </g>
    <g id="Group_6411" data-name="Group 6411" transform="translate(0.099 6.876)">
      <path id="Path_4619" data-name="Path 4619" d="M13.518,8.763A9.4,9.4,0,0,0,9.207.864,5.394,5.394,0,0,0,9.451-.727,5.342,5.342,0,0,0,4.116-6.063,5.342,5.342,0,0,0-1.22-.727,5.344,5.344,0,0,0-.978.864a9.4,9.4,0,0,0-4.309,7.9v2.712A9.4,9.4,0,0,0-1.22,19.211V22a1.436,1.436,0,0,1-.8,1.289l-4.389,2.193a5.312,5.312,0,0,0-2.947,4.773V41.3a1.267,1.267,0,0,0,1.267,1.269A1.267,1.267,0,0,0-6.82,41.3V30.807l2.069,2.064a2.788,2.788,0,0,1,.819,1.981V41.3a1.267,1.267,0,0,0,1.267,1.269A1.268,1.268,0,0,0-1.4,41.3V34.851a5.3,5.3,0,0,0-1.56-3.773L-5.832,28.2c-.017-.015-.032-.027-.044-.039a2.789,2.789,0,0,1,.6-.408l4.389-2.2a4.106,4.106,0,0,0,.628-.391l3.1,3.1V41.3a1.269,1.269,0,0,0,2.538,0V28.269l3.1-3.1a4.229,4.229,0,0,0,.628.391l1.21.606A1.269,1.269,0,1,0,11.459,23.9l-1.21-.606A1.431,1.431,0,0,1,9.451,22v-2.79a9.4,9.4,0,0,0,4.067-7.737ZM1.316-.727a2.8,2.8,0,0,1,2.8-2.8,2.8,2.8,0,0,1,2.8,2.8,2.783,2.783,0,0,1-.044.5,9.424,9.424,0,0,0-5.5,0,2.8,2.8,0,0,1-.049-.5M4.116,1.9A6.873,6.873,0,0,1,10.98,8.763v.46A7.957,7.957,0,0,1,2.419,6.645,1.273,1.273,0,0,0,.506,6.511,8.29,8.29,0,0,1-2.746,8.587,6.872,6.872,0,0,1,4.116,1.9M7.045,23.019,4.116,25.951,1.184,23.019A4.03,4.03,0,0,0,1.316,22V20.454a9.469,9.469,0,0,0,5.6,0V22a4.03,4.03,0,0,0,.132,1.017M4.116,18.341a6.875,6.875,0,0,1-6.866-6.866v-.262A10.193,10.193,0,0,0,1.326,9.181a11.32,11.32,0,0,0,2.352,1.712,10.077,10.077,0,0,0,4.847,1.252,10.536,10.536,0,0,0,2.445-.293,6.874,6.874,0,0,1-6.854,6.49" transform="translate(9.353 6.063)" fill="#3cbfae"/>
    </g>
    <g id="Group_6412" data-name="Group 6412" transform="translate(0 6.778)">
      <path id="Path_4620" data-name="Path 4620" d="M8.018,28.859a1.367,1.367,0,0,1-1.367-1.364V14.5L3.639,11.491a4.148,4.148,0,0,1-.575.35l-4.387,2.2a2.566,2.566,0,0,0-.5.325L1.015,17.2A5.4,5.4,0,0,1,2.6,21.044v6.448a1.364,1.364,0,1,1-2.729,0V21.044a2.686,2.686,0,0,0-.792-1.91l-1.9-1.9V27.492a1.369,1.369,0,0,1-1.367,1.367,1.367,1.367,0,0,1-1.364-1.367V16.45a5.41,5.41,0,0,1,3-4.861L1.842,9.4a1.341,1.341,0,0,0,.743-1.2V5.456A9.514,9.514,0,0,1-1.481-2.333V-5.044a9.466,9.466,0,0,1,4.294-7.937,5.387,5.387,0,0,1-.227-1.553,5.44,5.44,0,0,1,5.433-5.433,5.44,5.44,0,0,1,5.433,5.433,5.42,5.42,0,0,1-.227,1.55,9.477,9.477,0,0,1,4.294,7.94v2.712a9.511,9.511,0,0,1-4.067,7.788V8.194A1.335,1.335,0,0,0,14.2,9.4l1.21.6a1.367,1.367,0,0,1-.614,2.59,1.352,1.352,0,0,1-.609-.144l-1.21-.606a4.343,4.343,0,0,1-.575-.35L9.385,14.5V27.495a1.367,1.367,0,0,1-1.367,1.364M3.658,11.231l3.189,3.191V27.495a1.171,1.171,0,0,0,2.343,0V14.422l3.189-3.191.068.051a4.143,4.143,0,0,0,.614.384l1.21.6a1.143,1.143,0,0,0,.521.125,1.171,1.171,0,0,0,.526-2.218l-1.21-.606a1.528,1.528,0,0,1-.851-1.377V5.353l.042-.029a9.313,9.313,0,0,0,4.025-7.656V-5.044a9.281,9.281,0,0,0-4.265-7.815l-.064-.039.022-.071a5.286,5.286,0,0,0,.24-1.565,5.244,5.244,0,0,0-5.238-5.238,5.244,5.244,0,0,0-5.238,5.238,5.238,5.238,0,0,0,.24,1.565l.022.071-.064.039A9.277,9.277,0,0,0-1.286-5.044v2.712A9.316,9.316,0,0,0,2.739,5.324l.042.029V8.194A1.534,1.534,0,0,1,1.93,9.571l-4.387,2.193a5.211,5.211,0,0,0-2.9,4.685V27.492a1.171,1.171,0,0,0,1.169,1.171,1.173,1.173,0,0,0,1.171-1.171V16.763L-.78,19a2.884,2.884,0,0,1,.849,2.049v6.448a1.17,1.17,0,1,0,2.34,0V21.044a5.2,5.2,0,0,0-1.531-3.7l-3-2.988.081-.071a2.877,2.877,0,0,1,.626-.423l4.387-2.193a4,4,0,0,0,.614-.384Zm4.36,1.049L4.979,9.241l.015-.054a4,4,0,0,0,.13-.993V6.512l.127.042a9.379,9.379,0,0,0,5.539,0l.125-.042V8.194a3.9,3.9,0,0,0,.13.993l.015.054ZM5.2,9.182,8.018,12,10.84,9.182a4.094,4.094,0,0,1-.122-.988V6.778a9.567,9.567,0,0,1-5.4,0V8.194a4.17,4.17,0,0,1-.122.988M8.018,4.632A6.973,6.973,0,0,1,1.054-2.333v-.34l.078-.017A10.106,10.106,0,0,0,5.167-4.7l.066-.054.061.059A11.284,11.284,0,0,0,7.627-3a9.961,9.961,0,0,0,7.223.951l.127-.032,0,.132a6.965,6.965,0,0,1-6.954,6.58M1.25-2.518v.186A6.777,6.777,0,0,0,8.018,4.436a6.766,6.766,0,0,0,6.749-6.267,10.125,10.125,0,0,1-7.233-1A11.345,11.345,0,0,1,5.223-4.5,10.26,10.26,0,0,1,1.25-2.518M12.41-4.1a8.174,8.174,0,0,1-6.167-3,1.152,1.152,0,0,0-.853-.465,1.17,1.17,0,0,0-.91.337,8.423,8.423,0,0,1-3.294,2.1l-.132.044,0-.139a7.006,7.006,0,0,1,6.959-6.783,6.971,6.971,0,0,1,6.964,6.962v.533l-.071.02a8.45,8.45,0,0,1-2.5.391m-7.1-3.665c.032,0,.064,0,.1,0a1.364,1.364,0,0,1,1,.54,7.824,7.824,0,0,0,8.387,2.563v-.386a6.775,6.775,0,0,0-6.769-6.766A6.81,6.81,0,0,0,1.26-5.357,8.33,8.33,0,0,0,4.341-7.365a1.366,1.366,0,0,1,.966-.4m-.115-6.143-.02-.108a2.787,2.787,0,0,1-.049-.518,2.9,2.9,0,0,1,2.9-2.9,2.9,2.9,0,0,1,2.9,2.9,3.027,3.027,0,0,1-.044.518l-.022.108-.1-.032a9.336,9.336,0,0,0-5.448,0Zm2.827-.636a9.536,9.536,0,0,1,2.675.384,2.7,2.7,0,0,0,.024-.374,2.7,2.7,0,0,0-2.7-2.7,2.7,2.7,0,0,0-2.7,2.7,2.5,2.5,0,0,0,.027.374,9.456,9.456,0,0,1,2.673-.384" transform="translate(5.548 19.968)" fill="#3cbfae"/>
    </g>
  </g>
</svg>
