<?xml version="1.0" encoding="utf-8"?>
<!-- Generator: Adobe Illustrator 25.4.0, SVG Export Plug-In . SVG Version: 6.00 Build 0)  -->
<svg version="1.1" id="Layer_1" xmlns="http://www.w3.org/2000/svg" xmlns:xlink="http://www.w3.org/1999/xlink" x="0px" y="0px"
	 viewBox="0 0 48 64" style="enable-background:new 0 0 48 64;" xml:space="preserve">
<g>
	<path class="st0" d="M24,36.2h-1v7.4h0.8c1,0,1.7-0.3,2.2-0.9c0.5-0.6,0.7-1.6,0.7-2.8c0-1.3-0.2-2.2-0.7-2.8
		C25.5,36.5,24.9,36.2,24,36.2z"/>
	<path class="st0" d="M14.4,36.2h-0.9v3.4h0.7c0.5,0,0.9-0.1,1.3-0.4c0.3-0.3,0.5-0.7,0.5-1.3C15.9,36.7,15.4,36.2,14.4,36.2z"/>
	<path class="st0" d="M47.1,13.3L34.9,0.9C34.3,0.3,33.6,0,32.8,0H32v16.2h16v-0.8C48,14.7,47.7,13.9,47.1,13.3z"/>
	<path class="st0" d="M28,17V0H3C1.3,0,0,1.3,0,3v58c0,1.7,1.3,3,3,3h42c1.7,0,3-1.3,3-3V20H31C29.3,20,28,18.7,28,17z M18.1,39.6
		c-0.3,0.6-0.7,1-1.3,1.4c-0.6,0.4-1.4,0.5-2.4,0.5h-0.9v4.1h-2.6V34.2h3.6c1.4,0,2.4,0.3,3,1c0.7,0.6,1,1.5,1,2.6
		C18.5,38.4,18.4,39,18.1,39.6z M27.8,44.1c-1,1-2.4,1.5-4.2,1.5h-3.2V34.2h3.5c1.7,0,3,0.5,4,1.4c1,0.9,1.5,2.3,1.5,4.2
		C29.4,41.7,28.9,43.2,27.8,44.1z M31.5,34.2h6.3v2H34v2.9h3.4v2H34v4.5h-2.5V34.2z"/>
</g>
</svg>
