<svg xmlns="http://www.w3.org/2000/svg" xmlns:xlink="http://www.w3.org/1999/xlink" width="59.175" height="52.536" viewBox="0 0 59.175 52.536">
  <defs>
    <clipPath id="clip-path">
      <path id="Path_4616" data-name="Path 4616" d="M0,27.148H59.175V-25.388H0Z" transform="translate(0 25.388)" fill="#3cbfae" stroke="#707070" stroke-width="1"/>
    </clipPath>
  </defs>
  <g id="Group_7315" data-name="Group 7315" transform="translate(0 25.388)">
    <g id="Group_6407" data-name="Group 6407" transform="translate(0 -25.388)" clip-path="url(#clip-path)">
      <g id="Group_6405" data-name="Group 6405" transform="translate(0.258 0.259)">
        <path id="Path_4614" data-name="Path 4614" d="M11.958,1.16C.436,1.16-8.938,8.5-8.938,17.514c0,4.9,2.322,7.675,4.37,10.121l.248.3.029.886a23.586,23.586,0,0,1-.476,6.593A22.572,22.572,0,0,0,.78,32.73l.964-.592.453.11.726.178a35.936,35.936,0,0,0,9.242,1.333c12.778,0,20.689-8.433,20.689-16.244,0-9.018-9.374-16.354-20.9-16.354M-7.967,38.816l.544-1.995a22.052,22.052,0,0,0,.888-7.928l0-.114c-2.133-2.556-4.646-5.765-4.646-11.265,0-10.256,10.382-18.6,23.141-18.6S35.1,7.259,35.1,17.514C35.1,26.406,26.33,36,12.165,36a37.9,37.9,0,0,1-9.778-1.4c-.089-.023-.178-.046-.265-.066l-.163.1A27.89,27.89,0,0,1-6,38.187ZM45.252,50.8l-1.908-.656a15.886,15.886,0,0,1-4.232-1.989c-.058-.035-.116-.072-.178-.112-5.546,1.306-11.874,1.912-17.293-2.7A1.123,1.123,0,1,1,23.1,43.629C27.884,47.7,33.5,47.056,38.86,45.748l.455-.11.4.244c.213.13.406.25.581.36a14.562,14.562,0,0,0,1.958,1.091,18.7,18.7,0,0,1-.06-2.932l.025-.877.25-.3c2.069-2.469,2.982-4.9,2.717-7.224a8.826,8.826,0,0,0-3.808-5.925,1.122,1.122,0,0,1,1.349-1.794,10.988,10.988,0,0,1,4.687,7.462c.329,2.86-.673,5.757-2.974,8.617l0,.108a13.739,13.739,0,0,0,.366,4.36Z" transform="translate(11.183 1.085)" fill="#3cbfae" stroke="#707070" stroke-width="1"/>
      </g>
      <g id="Group_6406" data-name="Group 6406" transform="translate(0.258 0.259)">
        <path id="Path_4615" data-name="Path 4615" d="M11.958,1.16C.436,1.16-8.938,8.5-8.938,17.514c0,4.9,2.322,7.675,4.37,10.121l.248.3.029.886a23.586,23.586,0,0,1-.476,6.593A22.572,22.572,0,0,0,.78,32.73l.964-.592.453.11.726.178a35.936,35.936,0,0,0,9.242,1.333c12.778,0,20.689-8.433,20.689-16.244,0-9.018-9.374-16.354-20.9-16.354M-7.967,38.816l.544-1.995a22.052,22.052,0,0,0,.888-7.928l0-.114c-2.133-2.556-4.646-5.765-4.646-11.265,0-10.256,10.382-18.6,23.141-18.6S35.1,7.259,35.1,17.514C35.1,26.406,26.33,36,12.165,36a37.9,37.9,0,0,1-9.778-1.4c-.089-.023-.178-.046-.265-.066l-.163.1A27.89,27.89,0,0,1-6,38.187ZM45.252,50.8l-1.908-.656a15.886,15.886,0,0,1-4.232-1.989c-.058-.035-.116-.072-.178-.112-5.546,1.306-11.874,1.912-17.293-2.7A1.123,1.123,0,1,1,23.1,43.629C27.884,47.7,33.5,47.056,38.86,45.748l.455-.11.4.244c.213.13.406.25.581.36a14.562,14.562,0,0,0,1.958,1.091,18.7,18.7,0,0,1-.06-2.932l.025-.877.25-.3c2.069-2.469,2.982-4.9,2.717-7.224a8.826,8.826,0,0,0-3.808-5.925,1.122,1.122,0,0,1,1.349-1.794,10.988,10.988,0,0,1,4.687,7.462c.329,2.86-.673,5.757-2.974,8.617l0,.108a13.739,13.739,0,0,0,.366,4.36Z" transform="translate(11.183 1.085)" fill="#3cbfae" stroke="#fff" stroke-width="0.25"/>
      </g>
    </g>
  </g>
</svg>
