<svg xmlns="http://www.w3.org/2000/svg" width="47.369" height="43.193" viewBox="0 0 47.369 43.193">
  <defs>
    <style>
      .cls-1 {
        fill: #3cbfae;
      }

      .cls-2 {
        fill: none;
        stroke: #3cbfae;
        stroke-width: 2px;
      }
    </style>
  </defs>
  <g id="Group_6877" data-name="Group 6877" transform="translate(1.051 1)">
    <path id="Path_4671" data-name="Path 4671" class="cls-1" d="M-27,11.878h6.148V4.5H-27Zm0,8.608h6.148V13.108H-27Zm7.378,0h6.148V13.108h-6.148Zm7.378,0H-6.1V13.108h-6.148Zm-7.378-8.608h6.148V4.5h-6.148ZM-12.244,4.5v7.378H-6.1V4.5Z" transform="translate(39.326 8.485)"/>
    <path id="Path_4900" data-name="Path 4900" class="cls-2" d="M44.979,19.015,38.556,1.854A3,3,0,0,0,35.871,0H9.315A3,3,0,0,0,6.63,1.854L.239,19.015a4.877,4.877,0,0,0,0,3.164L6.662,39.339a3,3,0,0,0,2.684,1.854H35.9a3,3,0,0,0,2.684-1.854l6.423-17.161a5.1,5.1,0,0,0-.032-3.164" transform="translate(0.025)"/>
  </g>
</svg>
