<svg xmlns="http://www.w3.org/2000/svg" width="47.369" height="43.193" viewBox="0 0 47.369 43.193">
  <defs>
    <style>
      .cls-1 {
        fill: #3cbfae;
      }

      .cls-2 {
        fill: none;
        stroke: #3cbfae;
        stroke-width: 2px;
      }
    </style>
  </defs>
  <g id="Group_6876" data-name="Group 6876" transform="translate(1.051 1)">
    <g id="Group_6866" data-name="Group 6866" transform="translate(0)">
      <path id="Path_37" data-name="Path 37" class="cls-1" d="M-316.064,57.89l-.173.032-5.778,2.24-6.492-2.272-6.1,2.056a.545.545,0,0,0-.39.519v16.36a.536.536,0,0,0,.541.541l.173-.032,5.778-2.24,6.492,2.272,6.1-2.056a.545.545,0,0,0,.39-.519V58.431A.536.536,0,0,0-316.064,57.89ZM-322.015,75.2l-6.492-2.283V60.054l6.492,2.283Z" transform="translate(347.776 -46.977)"/>
      <path id="Path_4802" data-name="Path 4802" class="cls-2" d="M44.979,19.015,38.556,1.854A3,3,0,0,0,35.871,0H9.315A3,3,0,0,0,6.63,1.854L.239,19.015a4.877,4.877,0,0,0,0,3.164L6.662,39.339a3,3,0,0,0,2.684,1.854H35.9a3,3,0,0,0,2.684-1.854l6.423-17.161a5.1,5.1,0,0,0-.032-3.164" transform="translate(0.025)"/>
    </g>
  </g>
</svg>
