<svg xmlns="http://www.w3.org/2000/svg" width="256" height="256" viewBox="0 0 256 256">
    <g fill="none" fill-rule="evenodd">
        <g fill="#FFF" fill-rule="nonzero">
            <g>
                <path d="M256 128c0 70.708-57.313 128-128 128S0 198.708 0 128C0 57.333 57.313 0 128 0s128 57.333 128 128zm-128 25.806c-13.112 0-23.742 10.63-23.742 23.742 0 13.113 10.63 23.742 23.742 23.742s23.742-10.63 23.742-23.742-10.63-23.742-23.742-23.742zm-22.54-85.34l3.828 70.194c.179 3.285 2.895 5.856 6.184 5.856h25.056c3.29 0 6.005-2.571 6.184-5.856l3.829-70.193c.193-3.548-2.631-6.532-6.184-6.532h-32.714c-3.553 0-6.377 2.984-6.184 6.532z" transform="matrix(-1 0 0 1 256 0)"/>
            </g>
        </g>
    </g>
</svg>
