<svg data-name="Layer 1" xmlns="http://www.w3.org/2000/svg" viewBox="0 0 1011.398 282.545"><path d="M342.486 179.225h-15.188l21.109-76.358h15.294l17.448 54.385 17.444-54.385h15.512l21.215 76.358h-15.722l-14.002-52.56-16.91 52.56h-15.402l-17.015-52.774-13.783 52.774zm111.512-79.201a8.831 8.831 0 11-8.83 8.943 8.826 8.826 0 018.83-8.943m-7.109 26.281h14.326v52.99h-14.326zm81.281 43.402c0 3.552.21 7.432.43 9.583h-13.682a37.17 37.17 0 01-.535-6.14c-2.37 4.204-7.756 7.432-14.864 7.432-15.075 0-25.844-11.847-25.844-27.894 0-15.508 10.441-27.675 25.415-27.675 9.153 0 13.458 3.767 14.97 6.57v-30.267h14.11zm-26.926-1.94c7.323 0 13.03-5.601 13.03-15.184 0-9.477-5.707-14.755-13.03-14.755-7.327 0-13.138 5.383-13.138 14.86s5.601 15.079 13.138 15.079m43.203-66.451h14.326v77.974h-14.326zm43.006 47.496l13.03-1.936c3.017-.433 3.985-1.94 3.985-3.77 0-3.771-2.904-6.894-8.94-6.894-6.244 0-9.691 3.986-10.12 8.615l-12.71-2.693c.863-8.291 8.51-17.444 22.726-17.444 16.8 0 23.05 9.477 23.05 20.137v26.063a59.187 59.187 0 00.643 8.4h-13.139a35.736 35.736 0 01-.542-6.35c-2.694 4.2-7.752 7.86-15.614 7.86-11.308 0-18.201-7.65-18.201-15.94 0-9.478 6.998-14.756 15.832-16.048m17.015 9.048v-2.369l-11.952 1.83c-3.662.54-6.57 2.585-6.57 6.675 0 3.123 2.26 6.14 6.89 6.14 6.03 0 11.632-2.907 11.632-12.276m43.822 21.431h-14.325v-52.988h13.892v6.57c3.232-5.493 9.587-7.971 15.298-7.971 13.139 0 19.17 9.372 19.17 21v33.39h-14.326V148.38c0-5.922-2.908-10.551-9.797-10.551-6.25 0-9.911 4.844-9.911 10.984zm101.378-9.584c0 3.552.214 7.432.429 9.583H736.42a36.607 36.607 0 01-.54-6.14c-2.369 4.204-7.751 7.432-14.863 7.432-15.08 0-25.845-11.847-25.845-27.894 0-15.508 10.446-27.675 25.415-27.675 9.154 0 13.463 3.767 14.97 6.57v-30.267h14.11zm-26.926-1.94c7.318 0 13.03-5.601 13.03-15.184 0-9.477-5.712-14.755-13.03-14.755-7.327 0-13.139 5.383-13.139 14.86s5.597 15.079 13.14 15.079m52.478-5.924c.324 4.2 3.447 8.08 9.696 8.08 4.735 0 6.999-2.479 6.999-5.281 0-2.366-1.616-4.306-5.711-5.168l-6.994-1.612c-10.235-2.264-14.869-8.4-14.869-15.832 0-9.478 8.404-17.34 19.822-17.34 15.079 0 20.137 9.583 20.785 15.294l-11.956 2.69c-.43-3.123-2.693-7.109-8.724-7.109-3.766 0-6.784 2.265-6.784 5.278 0 2.588 1.94 4.2 4.848 4.739l7.538 1.616c10.445 2.154 15.722 8.51 15.722 16.261 0 8.615-6.679 17.448-20.57 17.448-15.938 0-21.43-10.34-22.078-16.37zM420.132 0h15.184l-21.105 76.358h-15.29l-17.452-54.386-17.448 54.386h-15.508L327.298 0h15.723l14.001 52.559L373.932 0h15.398l17.019 52.774L420.132 0zm69.058 61.177c-2.69 9.154-11.09 16.796-24.124 16.796-14.54 0-27.355-10.445-27.355-28.322 0-16.91 12.495-27.894 26.063-27.894 16.371 0 26.168 10.445 26.168 27.46 0 2.05-.21 4.204-.21 4.419h-37.914c.328 6.999 6.25 12.061 13.353 12.061 6.684 0 10.34-3.341 12.066-8.08zm-13.354-17.343c-.215-5.277-3.662-10.445-11.847-10.445a11.456 11.456 0 00-11.843 10.445zm34.114 15.078c.325 4.2 3.448 8.076 9.693 8.076 4.739 0 6.999-2.474 6.999-5.277 0-2.365-1.616-4.306-5.707-5.168l-7.003-1.616c-10.226-2.265-14.86-8.4-14.86-15.833 0-9.473 8.4-17.338 19.818-17.338 15.078 0 20.137 9.586 20.785 15.297l-11.956 2.69c-.43-3.123-2.694-7.109-8.724-7.109-3.767 0-6.784 2.26-6.784 5.278 0 2.584 1.94 4.2 4.848 4.739l7.542 1.616c10.44 2.15 15.718 8.51 15.718 16.261 0 8.615-6.675 17.448-20.57 17.448-15.938 0-21.43-10.34-22.074-16.37zm60.776-35.54h10.664v12.71h-10.664v22.182c0 4.633 2.155 6.14 6.245 6.14a20.605 20.605 0 004.42-.433v11.85a21.264 21.264 0 01-8.081 1.293c-10.336 0-16.804-6.14-16.804-16.371V36.08h-9.583V23.37h2.69c5.605 0 8.189-3.66 8.189-8.4V7.54h12.924zM43.654 232.973a6.046 6.046 0 01-11.313-.008L1.21 149.842a25.887 25.887 0 010-15.647l31.13-83.123a6.052 6.052 0 0111.313-.008l31.141 83.13a25.965 25.965 0 010 15.648zM95.89 92.494a6.06 6.06 0 01-11.34 0L53.42 9.371c-.139-.372-.248-.77-.364-1.18a6.434 6.434 0 01-.211-1.715 6.457 6.457 0 016.46-6.455h61.83a6.457 6.457 0 016.456 6.455 6.592 6.592 0 01-.206 1.715c-.117.41-.226.808-.365 1.18zm104.536 0a6.062 6.062 0 01-11.343 0l-31.13-83.123c-.135-.372-.244-.77-.36-1.18a6.434 6.434 0 01-.211-1.715A6.457 6.457 0 01163.84.021h61.832a6.457 6.457 0 016.455 6.455 6.434 6.434 0 01-.21 1.715c-.117.41-.226.808-.361 1.18zm-52.174 140.479a6.046 6.046 0 01-11.313-.008l-31.13-83.123a25.963 25.963 0 010-15.647l31.13-83.123a6.052 6.052 0 0111.313-.008l31.141 83.13a25.888 25.888 0 010 15.648zm104.6 0a6.05 6.05 0 01-5.659 3.899 6.022 6.022 0 01-5.654-3.907l-31.13-83.123a25.885 25.885 0 010-15.647l31.13-83.123a6.05 6.05 0 0111.313-.008l31.141 83.13a25.888 25.888 0 010 15.648zM95.89 190.071a6.06 6.06 0 00-11.34 0l-31.13 83.127c-.139.369-.248.767-.364 1.177a6.525 6.525 0 006.248 8.17h61.832a6.457 6.457 0 006.455-6.456 6.572 6.572 0 00-.206-1.714c-.117-.41-.226-.808-.365-1.177zm104.536 0a6.062 6.062 0 00-11.343 0l-31.13 83.127c-.135.369-.244.767-.36 1.177a6.525 6.525 0 006.248 8.17h61.832a6.525 6.525 0 006.244-8.17c-.116-.41-.225-.808-.36-1.177zm155.278 57.735h-11.766v32.188H332.95V201.3h29.635c14.873 0 24.085 10.432 24.085 23.418 0 11.322-7.214 20.09-19.09 22.31l18.757 32.965h-12.653zm4.883-9.767c8.88 0 14.873-5.217 14.873-13.32 0-8.324-5.994-13.652-14.873-13.652h-16.649v26.972zm52.282 11.432l14.43-2.109c3.218-.444 4.106-2.108 4.106-3.996 0-5.216-3.44-9.545-11.543-9.545-7.326 0-11.433 4.55-12.099 10.767l-9.99-2.331c1.111-10.211 10.323-17.315 21.866-17.315 15.984 0 22.2 9.1 22.2 19.534v26.75a50.146 50.146 0 00.665 8.768h-10.212a39.099 39.099 0 01-.554-7.215c-2.331 3.774-7.658 8.88-17.204 8.88-10.877 0-17.87-7.548-17.87-15.983 0-9.545 6.993-14.874 16.205-16.205zm18.536 7.659v-2.443l-16.317 2.443c-4.44.666-7.768 3.218-7.768 7.99 0 3.997 3.329 7.77 8.657 7.77 8.546 0 15.428-4.106 15.428-15.76zm31.747-58.272a7.492 7.492 0 11-7.437 7.548 7.486 7.486 0 017.437-7.548zm-5.106 81.136v-53.388h10.323v53.388zm28.082 0v-80.359h10.433v80.359zm57.053 0V201.3h47.838v10.1h-36.96v24.195h33.52v10.212h-33.52v24.085h36.96v10.1zM618.66 252.8l-19.202-26.194h12.653l13.097 18.758 12.875-18.758h12.32l-18.979 26.195c3.22 4.329 16.427 22.864 19.646 27.193h-12.542l-13.764-19.646-13.54 19.646h-12.432zm87.798 11.988c-2.996 9.434-11.543 16.87-23.973 16.87-14.319 0-26.86-10.433-26.86-28.524 0-16.76 12.097-28.192 25.528-28.192 16.427 0 25.638 11.32 25.638 27.97a23.413 23.413 0 01-.221 3.33h-40.18c.222 9.545 7.104 16.204 16.094 16.204 8.657 0 12.986-4.772 14.983-10.766zm-10.543-16.982c-.222-7.659-5.217-13.652-14.65-13.652a14.36 14.36 0 00-14.54 13.652zm30.415 5.439c0 12.209 7.659 18.758 16.316 18.758 9.99 0 13.651-6.77 14.873-10.989l9.212 3.996c-2.553 7.659-10.211 16.649-24.085 16.649-15.54 0-26.972-12.21-26.972-28.414 0-16.65 11.655-28.303 26.86-28.303 14.208 0 21.533 8.879 23.754 16.982l-9.435 3.996c-1.332-5.217-5.217-11.322-14.318-11.322-8.436 0-16.205 6.215-16.205 18.647zm71.484 28.414c-12.43 0-19.979-9.323-19.979-21.422v-33.63h10.434v32.076c0 7.326 3.33 13.763 12.098 13.763 8.435 0 12.653-5.549 12.653-13.651v-32.189h10.434v43.51a89.9 89.9 0 00.554 9.878h-9.989a47.326 47.326 0 01-.443-6.438c-2.887 5.55-9.546 8.103-15.762 8.103zm57.386-55.053h11.544v9.435H855.2v27.748c0 4.884 1.998 7.325 7.436 7.325a21.14 21.14 0 004.107-.443v8.879a22.831 22.831 0 01-7.104.999c-9.1 0-14.872-5.55-14.872-15.207v-29.301h-10.212v-9.435h2.886c5.771 0 8.214-3.552 8.214-8.213v-8.657h9.545zm30.526-27.748a7.492 7.492 0 11-7.436 7.548 7.485 7.485 0 017.436-7.548zm-5.106 81.136v-53.388h10.323v53.388zm52.5 0h-10.543l-21.644-53.388h11.765l15.206 41.179 15.317-41.179h11.21zm76.144-15.206c-2.996 9.434-11.543 16.87-23.973 16.87-14.319 0-26.86-10.433-26.86-28.524 0-16.76 12.097-28.192 25.527-28.192 16.427 0 25.64 11.32 25.64 27.97a23.413 23.413 0 01-.223 3.33h-40.178c.221 9.545 7.103 16.204 16.094 16.204 8.657 0 12.985-4.772 14.983-10.766zm-10.544-16.982c-.221-7.659-5.217-13.652-14.651-13.652a14.36 14.36 0 00-14.54 13.652z" fill="#fff"/></svg>