<svg id="Layer_1" data-name="Layer 1" xmlns="http://www.w3.org/2000/svg" viewBox="0 0 1011.39843 282.54481"><defs><style>.cls-1{fill:#fff;}</style></defs><polygon class="cls-1" points="342.486 179.225 327.298 179.225 348.407 102.867 363.701 102.867 381.149 157.252 398.593 102.867 414.105 102.867 435.32 179.225 419.598 179.225 405.596 126.665 388.686 179.225 373.284 179.225 356.269 126.451 342.486 179.225"/><path class="cls-1" d="M453.99758,100.0237a8.83142,8.83142,0,1,1-8.82942,8.943,8.826,8.826,0,0,1,8.82942-8.943m-7.10818,26.28175h14.32553v52.98861H446.8894Z"/><path class="cls-1" d="M528.17,169.70728c0,3.5519.2105,7.43208.42934,9.58254h-13.6817a37.16951,37.16951,0,0,1-.53453-6.14006c-2.36931,4.20421-7.75612,7.43209-14.86417,7.43209-15.07467,0-25.84418-11.8468-25.84418-27.89357,0-15.50813,10.44124-27.67485,25.41483-27.67485,9.15346,0,13.45862,3.76664,14.96949,6.56941V101.31572H528.17Zm-26.92558-1.94022c7.32266,0,13.02927-5.60142,13.02927-15.184,0-9.47749-5.70661-14.75487-13.02927-14.75487-7.327,0-13.13882,5.38257-13.13882,14.86006s5.60142,15.07878,13.13882,15.07878"/><rect class="cls-1" x="544.44726" y="101.31572" width="14.32553" height="77.97423"/><path class="cls-1" d="M587.45286,148.81234l13.02939-1.93585c3.01751-.43346,3.9855-1.94009,3.9855-3.77076,0-3.77075-2.90385-6.89344-8.93885-6.89344-6.24525,0-9.692,3.98536-10.12132,8.61468l-12.70947-2.69347c.86267-8.29052,8.5095-17.444,22.7256-17.444,16.80015,0,23.04964,9.47749,23.04964,20.13745v26.06291a59.18715,59.18715,0,0,0,.644,8.40007H605.97849a35.73577,35.73577,0,0,1-.54288-6.35056c-2.69334,4.2001-7.752,7.86143-15.61332,7.86143-11.30815,0-18.20159-7.65093-18.20159-15.94158,0-9.47749,6.99862-14.75488,15.83216-16.0469m17.01489,9.04814v-2.36931l-11.95212,1.83067c-3.66133.53864-6.56928,2.584-6.56928,6.67459,0,3.12269,2.25989,6.14019,6.88921,6.14019,6.03064,0,11.63219-2.90808,11.63219-12.27614"/><path class="cls-1" d="M648.29087,179.29149H633.96521V126.303h13.89207v6.56928c3.23211-5.492,9.58691-7.97073,15.29776-7.97073,13.13882,0,19.16946,9.37218,19.16946,21.00013v33.3898H667.999V148.38055c0-5.92134-2.90808-10.55066-9.79729-10.55066-6.24948,0-9.91081,4.84393-9.91081,10.98412Z"/><path class="cls-1" d="M749.66764,169.70728c0,3.5519.21461,7.43208.42935,9.58254H736.41952a36.60735,36.60735,0,0,1-.53877-6.14006c-2.36931,4.20421-7.75188,7.43209-14.86417,7.43209-15.07891,0-25.84418-11.8468-25.84418-27.89357,0-15.50813,10.44548-27.67485,25.41483-27.67485,9.15346,0,13.46286,3.76664,14.96949,6.56941V101.31572h14.11092Zm-26.92558-1.94022c7.31842,0,13.02927-5.60142,13.02927-15.184,0-9.47749-5.71085-14.75487-13.02927-14.75487-7.327,0-13.13882,5.38257-13.13882,14.86006s5.59718,15.07878,13.13882,15.07878"/><path class="cls-1" d="M775.221,161.84289c.324,4.2001,3.4466,8.08028,9.69621,8.08028,4.73451,0,6.99863-2.47873,6.99863-5.28163,0-2.36507-1.61606-4.30515-5.71085-5.168l-6.99439-1.61182c-10.235-2.26412-14.86853-8.40007-14.86853-15.83216,0-9.47749,8.40431-17.33879,19.82189-17.33879,15.07878,0,20.13732,9.58254,20.78551,15.29352l-11.95622,2.6891c-.42934-3.12269-2.69347-7.108-8.72411-7.108-3.76664,0-6.784,2.26412-6.784,5.27738,0,2.58816,1.94009,4.20011,4.848,4.73875l7.5374,1.61606c10.44535,2.15469,15.72274,8.50949,15.72274,16.26138,0,8.61481-6.67883,17.44834-20.5709,17.44834-15.93735,0-21.42935-10.34016-22.07754-16.37093Z"/><polygon class="cls-1" points="420.132 0 435.316 0 414.211 76.358 398.921 76.358 381.469 21.972 364.021 76.358 348.513 76.358 327.298 0 343.021 0 357.022 52.559 373.932 0 389.33 0 406.349 52.774 420.132 0"/><path class="cls-1" d="M489.18905,61.17741c-2.6891,9.15346-11.08918,16.79605-24.12281,16.79605-14.54014,0-27.35493-10.44548-27.35493-28.32292,0-16.90957,12.49487-27.89357,26.06291-27.89357,16.37093,0,26.16821,10.44535,26.16821,27.46011,0,2.04952-.2105,4.20422-.2105,4.41882H451.81812c.32815,6.99863,6.24949,12.06141,13.35331,12.06141,6.68307,0,10.34016-3.34153,12.06564-8.08015Zm-13.3533-17.343C475.621,38.557,472.17429,33.389,463.989,33.389a11.45556,11.45556,0,0,0-11.84268,10.44535Z"/><path class="cls-1" d="M509.95093,58.912c.324,4.2001,3.4466,8.076,9.692,8.076,4.73874,0,6.99862-2.47449,6.99862-5.27739,0-2.36507-1.616-4.30516-5.7066-5.168l-7.00287-1.61606c-10.2265-2.26412-14.86006-8.40007-14.86006-15.83216,0-9.47325,8.40007-17.33879,19.81765-17.33879,15.07878,0,20.13745,9.58678,20.78552,15.29776l-11.95622,2.6891c-.42922-3.12269-2.69347-7.108-8.72411-7.108-3.76652,0-6.784,2.26-6.784,5.27738,0,2.58405,1.94009,4.2001,4.84817,4.73875l7.54151,1.61605c10.44111,2.15046,15.7185,8.5095,15.7185,16.26138,0,8.61482-6.6746,17.44835-20.57091,17.44835-15.93735,0-21.42934-10.34017-22.0733-16.37093Z"/><path class="cls-1" d="M570.72609,23.37162h10.6642v12.7096h-10.6642V58.26394c0,4.63356,2.1547,6.14006,6.24525,6.14006a20.60512,20.60512,0,0,0,4.41895-.43345v11.851a21.26411,21.26411,0,0,1-8.08028,1.292c-10.33593,0-16.80439-6.1402-16.80439-16.37094V36.08122h-9.58254V23.37162h2.6891c5.60566,0,8.1897-3.66134,8.1897-8.39995V7.53945h12.92421Z"/><path class="cls-1" d="M43.65377,232.97287a6.04585,6.04585,0,0,1-11.31292-.00745l-31.13021-83.123a25.88665,25.88665,0,0,1,0-15.64777l31.13021-83.123a6.05206,6.05206,0,0,1,11.31292-.00746l31.14145,83.13043a25.96517,25.96517,0,0,1,0,15.64777Z"/><path class="cls-1" d="M95.88965,92.49435a6.06007,6.06007,0,0,1-11.3393,0L53.42014,9.37149c-.13906-.3722-.24817-.7708-.36463-1.18052A6.43436,6.43436,0,0,1,52.845,6.47646,6.45738,6.45738,0,0,1,59.30406.02115h61.83188a6.45658,6.45658,0,0,1,6.45531,6.45531A6.59206,6.59206,0,0,1,127.3845,8.191c-.11657.40972-.22557.80832-.36464,1.18052Z"/><path class="cls-1" d="M200.42637,92.49435a6.06236,6.06236,0,0,1-11.34309,0L157.95307,9.37149c-.13527-.3722-.24439-.7708-.36084-1.18052a6.43436,6.43436,0,0,1-.21054-1.71451A6.45738,6.45738,0,0,1,163.84078.02115h61.83188A6.45658,6.45658,0,0,1,232.128,6.47646a6.43436,6.43436,0,0,1-.21054,1.71451c-.11657.40972-.22557.80832-.36085,1.18052Z"/><path class="cls-1" d="M148.252,232.97287a6.04584,6.04584,0,0,1-11.31291-.00745l-31.13021-83.123a25.96292,25.96292,0,0,1,0-15.64777l31.13021-83.123a6.05205,6.05205,0,0,1,11.31291-.00746l31.14146,83.13043a25.88787,25.88787,0,0,1,0,15.64777Z"/><path class="cls-1" d="M252.8518,232.97287a6.04987,6.04987,0,0,1-5.65834,3.89887,6.022,6.022,0,0,1-5.65457-3.90632l-31.13021-83.123a25.88543,25.88543,0,0,1,0-15.64777l31.13021-83.123a6.05044,6.05044,0,0,1,11.31291-.00746l31.14146,83.13043a25.88767,25.88767,0,0,1,0,15.64777Z"/><path class="cls-1" d="M95.88965,190.07149a6.06014,6.06014,0,0,0-11.3393,0L53.42014,273.19825c-.13906.36842-.24817.767-.36463,1.17674a6.52464,6.52464,0,0,0,6.24855,8.16982h61.83188a6.45658,6.45658,0,0,0,6.45531-6.45531,6.57223,6.57223,0,0,0-.20675-1.71451c-.11657-.40972-.22557-.80832-.36464-1.17674Z"/><path class="cls-1" d="M200.42637,190.07149a6.06243,6.06243,0,0,0-11.34309,0l-31.13021,83.12676c-.13527.36842-.24439.767-.36084,1.17674a6.52464,6.52464,0,0,0,6.24855,8.16982h61.83188a6.52468,6.52468,0,0,0,6.24477-8.16982c-.11657-.40972-.22557-.80832-.36085-1.17674Z"/><path class="cls-1" d="M355.7036,247.80639H343.938v32.1875H332.9497V201.30053h29.63574c14.87207,0,24.085,10.43262,24.085,23.41894,0,11.32129-7.21484,20.08985-19.09082,22.30957l18.75781,32.96485H373.68407Zm4.88379-9.76758c8.87891,0,14.873-5.2168,14.873-13.31934,0-8.32421-5.99414-13.65234-14.873-13.65234H343.938v26.97168Z"/><path class="cls-1" d="M412.86864,249.47143l14.42969-2.10938c3.21875-.44433,4.10644-2.1084,4.10644-3.99609,0-5.21582-3.44043-9.54492-11.543-9.54492-7.32618,0-11.43262,4.55078-12.09864,10.7666l-9.98926-2.33106c1.11036-10.21093,10.32227-17.31445,21.86524-17.31445,15.9834,0,22.19922,9.10059,22.19922,19.53418v26.749a50.14591,50.14591,0,0,0,.666,8.76856H432.29247a39.09864,39.09864,0,0,1-.55469-7.21485c-2.33105,3.77442-7.6582,8.87989-17.2041,8.87989-10.877,0-17.86914-7.54785-17.86914-15.9834C396.66454,256.13061,403.65673,250.80248,412.86864,249.47143Zm18.53613,7.6582v-2.44238l-16.3164,2.44238c-4.43946.666-7.76856,3.21875-7.76856,7.99121,0,3.9961,3.3291,7.76953,8.65723,7.76953C424.52294,272.89037,431.40477,268.78393,431.40477,257.12963Z"/><path class="cls-1" d="M463.15184,198.85815a7.49239,7.49239,0,1,1-7.43652,7.54785A7.48573,7.48573,0,0,1,463.15184,198.85815Zm-5.10546,81.13574v-53.3877h10.32226v53.3877Z"/><path class="cls-1" d="M486.12841,279.99389v-80.3584H496.561v80.3584Z"/><path class="cls-1" d="M543.18114,279.99389V201.30053H591.019v10.09961H554.05809v24.19629H587.5786v10.21191H554.05809v24.085H591.019v10.10059Z"/><path class="cls-1" d="M618.65966,252.80053l-19.20215-26.19434h12.65332L625.20848,245.364l12.875-18.75782H650.4038l-18.97949,26.19434c3.21875,4.3291,16.42675,22.86426,19.6455,27.19336h-12.542l-13.76367-19.64551-13.541,19.64551H598.79247Z"/><path class="cls-1" d="M706.45848,264.78783c-2.99609,9.43457-11.543,16.8711-23.97363,16.8711-14.31836,0-26.86035-10.4336-26.86035-28.52539,0-16.75977,12.09766-28.19141,25.52832-28.19141,16.42676,0,25.63867,11.32031,25.63867,27.96973a23.41341,23.41341,0,0,1-.22168,3.33008H666.3911c.22168,9.54492,7.10352,16.2041,16.09375,16.2041,8.65723,0,12.98633-4.77246,14.9834-10.76563Zm-10.54394-16.98144c-.22168-7.65918-5.2168-13.65235-14.65039-13.65235a14.36043,14.36043,0,0,0-14.54,13.65235Z"/><path class="cls-1" d="M726.32958,253.24486c0,12.209,7.65918,18.75782,16.3164,18.75782,9.98926,0,13.65137-6.77051,14.87305-10.98828l9.21192,3.99511c-2.55274,7.65918-10.21094,16.64942-24.085,16.64942-15.53906,0-26.97167-12.209-26.97167-28.41407,0-16.64941,11.65429-28.30273,26.86035-28.30273,14.207,0,21.53222,8.87891,23.75293,16.98145l-9.43457,3.99609c-1.332-5.2168-5.2168-11.32129-14.31836-11.32129C734.09911,234.59838,726.32958,240.81322,726.32958,253.24486Z"/><path class="cls-1" d="M797.814,281.65893c-12.43066,0-19.97851-9.32324-19.97851-21.42188V226.60619H788.269v32.07715c0,7.3252,3.33008,13.7627,12.09766,13.7627,8.43554,0,12.65332-5.54883,12.65332-13.65137V226.60619H823.4536V270.116a89.89992,89.89992,0,0,0,.55469,9.87793H814.019a47.32576,47.32576,0,0,1-.44336-6.4375C810.689,279.10619,804.02977,281.65893,797.814,281.65893Z"/><path class="cls-1" d="M855.20067,226.60619h11.543v9.43457h-11.543v27.74805c0,4.88379,1.99805,7.3252,7.43653,7.3252a21.13925,21.13925,0,0,0,4.10644-.44336v8.8789a22.83126,22.83126,0,0,1-7.10351.999c-9.10059,0-14.87207-5.54981-14.87207-15.20606V236.04076H834.55614v-9.43457h2.88574c5.77149,0,8.21387-3.55175,8.21387-8.21289v-8.65722h9.54492Z"/><path class="cls-1" d="M885.72606,198.85815a7.49239,7.49239,0,1,1-7.43652,7.54785A7.4849,7.4849,0,0,1,885.72606,198.85815Zm-5.10644,81.13574v-53.3877h10.32324v53.3877Z"/><path class="cls-1" d="M933.12059,279.99389H922.57665l-21.64356-53.3877h11.76465L927.9038,267.7849l15.31738-41.17871h11.21Z"/><path class="cls-1" d="M1009.26415,264.78783c-2.99609,9.43457-11.543,16.8711-23.97363,16.8711-14.31836,0-26.86036-10.4336-26.86036-28.52539,0-16.75977,12.09766-28.19141,25.52832-28.19141,16.42676,0,25.63868,11.32031,25.63868,27.96973a23.41341,23.41341,0,0,1-.22168,3.33008H969.19677c.22168,9.54492,7.10351,16.2041,16.09375,16.2041,8.65722,0,12.98535-4.77246,14.98339-10.76563ZM998.7202,247.80639c-.22168-7.65918-5.21679-13.65235-14.65136-13.65235a14.36019,14.36019,0,0,0-14.53907,13.65235Z"/></svg>