<svg xmlns="http://www.w3.org/2000/svg" viewBox="0 0 919.134 289.372"><path fill="#39AAA0" d="M45.647 235.633a6.03 6.03 0 01-5.628 3.878 5.986 5.986 0 01-3.456-1.089 6.003 6.003 0 01-2.166-2.796L3.444 152.973c-.802-2.139-1.202-4.959-1.202-7.779s.4-5.64 1.202-7.779l30.953-82.652a6.001 6.001 0 012.166-2.796 5.986 5.986 0 013.456-1.089 6.032 6.032 0 015.628 3.878l30.964 82.66c.802 2.138 1.202 4.959 1.202 7.778s-.4 5.64-1.202 7.78l-30.964 82.659zm51.94-139.682a6.001 6.001 0 01-2.166 2.797c-.976.686-2.184 1.088-3.472 1.088s-2.496-.402-3.473-1.088a6.003 6.003 0 01-2.166-2.797L55.357 13.3c-.138-.37-.246-.764-.36-1.171a6.455 6.455 0 01-.21-1.705 6.42 6.42 0 016.422-6.421h61.48a6.42 6.42 0 016.42 6.42c0 .59-.06 1.164-.208 1.706-.115.407-.222.801-.36 1.171L97.586 95.951zm103.943 0c-.429 1.139-1.19 2.11-2.167 2.797s-2.184 1.088-3.472 1.088c-1.288 0-2.496-.402-3.473-1.088s-1.738-1.658-2.165-2.797L159.3 13.3c-.139-.37-.247-.764-.361-1.171a6.455 6.455 0 01-.209-1.705 6.42 6.42 0 016.42-6.421h61.481a6.42 6.42 0 016.42 6.42c0 .59-.06 1.164-.208 1.706-.114.407-.222.801-.36 1.171l-30.954 82.652zm-51.877 139.682a6.03 6.03 0 01-5.628 3.878 5.986 5.986 0 01-3.457-1.089 6.002 6.002 0 01-2.165-2.796l-30.953-82.653c-.802-2.139-1.202-4.959-1.202-7.779s.4-5.64 1.202-7.779l30.953-82.652a6.002 6.002 0 012.165-2.796 5.986 5.986 0 013.457-1.089 6.03 6.03 0 015.628 3.878l30.964 82.66c.801 2.138 1.202 4.959 1.202 7.778s-.4 5.64-1.202 7.78l-30.964 82.659zm104.005 0a6.03 6.03 0 01-5.628 3.878 5.986 5.986 0 01-3.456-1.089 6.003 6.003 0 01-2.166-2.796l-30.953-82.653c-.801-2.139-1.202-4.959-1.202-7.779s.401-5.64 1.202-7.779l30.953-82.652a6.001 6.001 0 012.166-2.796 5.986 5.986 0 013.456-1.089 6.032 6.032 0 015.628 3.878l30.965 82.66c.8 2.138 1.201 4.959 1.201 7.778s-.4 5.64-1.201 7.78l-30.965 82.659zM97.587 192.975a6.001 6.001 0 00-2.166-2.797c-.976-.686-2.184-1.088-3.472-1.088s-2.496.402-3.473 1.088a6.003 6.003 0 00-2.166 2.797l-30.953 82.652c-.138.37-.246.764-.36 1.171a6.455 6.455 0 00-.21 1.705 6.42 6.42 0 006.422 6.421h61.48a6.42 6.42 0 006.42-6.42c0-.59-.06-1.164-.208-1.706-.114-.407-.222-.801-.36-1.17l-30.954-82.653zm103.943 0a6.001 6.001 0 00-2.167-2.797 6.037 6.037 0 00-3.472-1.088 6.037 6.037 0 00-3.473 1.088 6.002 6.002 0 00-2.165 2.797L159.3 275.627c-.139.37-.247.764-.361 1.171a6.455 6.455 0 00-.209 1.705 6.42 6.42 0 006.42 6.421h61.481a6.42 6.42 0 006.42-6.42c0-.59-.06-1.164-.208-1.706-.114-.407-.222-.801-.36-1.17l-30.954-82.653z"/><path fill="#FFF" d="M412.898 16.117h14.236l-19.79 71.586h-14.337l-16.356-50.989-16.358 50.989h-14.538l-19.891-71.586h14.741l13.126 49.272 15.851-49.272h14.44l15.952 49.474 12.924-49.474zm61.292 57.349c-2.524 8.583-10.4 15.751-22.617 15.751-13.631 0-25.646-9.794-25.646-26.554 0-15.852 11.712-26.15 24.434-26.15 15.347 0 24.536 9.793 24.536 25.746 0 1.918-.203 3.937-.203 4.14h-35.54c.303 6.562 5.856 11.308 12.52 11.308 6.26 0 9.692-3.13 11.308-7.573l11.208 3.332zm-12.52-16.255c-.203-4.948-3.434-9.794-11.107-9.794-6.966 0-10.804 5.25-11.106 9.794h22.213zm30.09 14.135c.303 3.938 3.23 7.573 9.087 7.573 4.443 0 6.562-2.323 6.562-4.948 0-2.221-1.514-4.038-5.35-4.846l-6.564-1.515c-9.591-2.12-13.933-7.876-13.933-14.842 0-8.885 7.875-16.256 18.578-16.256 14.135 0 18.88 8.987 19.487 14.338l-11.208 2.524c-.404-2.928-2.524-6.664-8.178-6.664-3.534 0-6.361 2.12-6.361 4.947 0 2.424 1.817 3.938 4.544 4.443l7.067 1.515c9.794 2.019 14.741 7.976 14.741 15.246 0 8.077-6.26 16.356-19.284 16.356-14.943 0-20.093-9.693-20.699-15.347l11.51-2.524zm54.827-33.32h9.996v11.915h-9.996V70.74c0 4.342 2.02 5.755 5.857 5.755 1.615 0 3.433-.202 4.14-.404v11.107c-1.213.505-3.636 1.212-7.573 1.212-9.693 0-15.75-5.756-15.75-15.348V49.941h-8.987V38.026h2.524c5.25 0 7.673-3.432 7.673-7.875v-6.967h12.116v14.842zM340.104 178.282h-14.236l19.79-71.585h14.337l16.356 50.988 16.357-50.988h14.54l19.89 71.585h-14.741l-13.126-49.271-15.852 49.271H368.98l-15.952-49.473-12.924 49.473zm101.069-74.257c4.644 0 8.28 3.735 8.28 8.38 0 4.443-3.636 8.178-8.28 8.178-4.544 0-8.28-3.735-8.28-8.178 0-4.645 3.736-8.38 8.28-8.38zm-6.664 74.312V128.66h13.429v49.677h-13.429zm74.111-8.986c0 3.332.202 6.967.404 8.986H496.2c-.202-1.01-.505-3.433-.505-5.755-2.221 3.937-7.27 6.966-13.933 6.966-14.136 0-24.233-11.106-24.233-26.15 0-14.54 9.795-25.949 23.829-25.949 8.582 0 12.62 3.534 14.034 6.16v-28.372h13.227v64.114zm-25.242-1.817c6.866 0 12.217-5.251 12.217-14.237 0-8.885-5.351-13.833-12.217-13.833-6.865 0-12.318 5.049-12.318 13.934s5.25 14.136 12.318 14.136zm38.774 10.803v-73.1h13.428v73.1h-13.428zm38.268-28.574l12.217-1.818c2.827-.404 3.736-1.817 3.736-3.533 0-3.534-2.726-6.462-8.38-6.462-5.856 0-9.087 3.736-9.491 8.077l-11.915-2.524c.808-7.774 7.977-16.357 21.304-16.357 15.751 0 21.608 8.885 21.608 18.881v24.434c0 2.626.303 6.158.605 7.876h-12.318c-.303-1.313-.504-4.04-.504-5.958-2.525 3.939-7.27 7.37-14.64 7.37-10.602 0-17.064-7.167-17.064-14.942 0-8.885 6.562-13.832 14.842-15.044zm15.953 8.48v-2.22l-11.208 1.716c-3.432.505-6.159 2.424-6.159 6.26 0 2.928 2.12 5.755 6.462 5.755 5.654 0 10.905-2.726 10.905-11.51zm39.075 20.094H602.02V128.66h13.025v6.16c3.028-5.15 8.985-7.472 14.337-7.472 12.317 0 17.972 8.785 17.972 19.689v31.3h-13.428v-28.978c0-5.553-2.727-9.895-9.189-9.895-5.856 0-9.289 4.544-9.289 10.299v28.574zm91.883-8.986c0 3.332.202 6.967.404 8.986h-12.823c-.202-1.01-.505-3.433-.505-5.755-2.221 3.937-7.27 6.966-13.933 6.966-14.136 0-24.233-11.106-24.233-26.15 0-14.54 9.795-25.949 23.829-25.949 8.582 0 12.62 3.534 14.034 6.16v-28.372h13.227v64.114zm-25.242-1.817c6.866 0 12.217-5.251 12.217-14.237 0-8.885-5.351-13.833-12.217-13.833-6.865 0-12.318 5.049-12.318 13.934s5.25 14.136 12.318 14.136zm46.044-5.554c.303 3.938 3.23 7.573 9.087 7.573 4.443 0 6.563-2.323 6.563-4.948 0-2.221-1.515-4.039-5.351-4.846l-6.564-1.515c-9.591-2.12-13.933-7.875-13.933-14.842 0-8.885 7.875-16.256 18.578-16.256 14.135 0 18.88 8.987 19.487 14.338l-11.208 2.524c-.404-2.928-2.524-6.664-8.178-6.664-3.534 0-6.36 2.12-6.36 4.948 0 2.423 1.817 3.937 4.543 4.442l7.067 1.515c9.794 2.019 14.742 7.976 14.742 15.246 0 8.077-6.26 16.356-19.285 16.356-14.943 0-20.093-9.693-20.699-15.347l11.51-2.524zm-373.458 77.682h-10.826v29.219h-10.11v-71.433h27.267c13.684 0 22.16 9.47 22.16 21.258 0 10.277-6.638 18.237-17.565 20.25l17.26 29.925h-11.642l-16.544-29.219zm4.493-8.866c8.17 0 13.684-4.736 13.684-12.09 0-7.556-5.514-12.393-13.684-12.393h-15.32v24.483h15.32zm45.038 10.378l13.276-1.914c2.963-.403 3.779-1.915 3.779-3.627 0-4.736-3.166-8.665-10.62-8.665-6.74 0-10.519 4.131-11.131 9.773l-9.191-2.116c1.02-9.27 9.496-15.718 20.117-15.718 14.705 0 20.425 8.263 20.425 17.733v24.28c0 4.233.408 6.752.613 7.96h-9.396c-.205-1.208-.51-3.022-.51-6.548-2.145 3.426-7.046 8.06-15.83 8.06-10.008 0-16.441-6.852-16.441-14.509 0-8.664 6.433-13.5 14.91-14.71zm17.055 6.951v-2.215l-15.012 2.215c-4.086.605-7.149 2.923-7.149 7.255 0 3.627 3.063 7.053 7.966 7.053 7.863 0 14.195-3.728 14.195-14.308zm26.145-52.895c3.881 0 6.946 3.024 6.946 6.853 0 3.727-3.065 6.75-6.945 6.75-3.779 0-6.842-3.023-6.842-6.75a6.819 6.819 0 016.841-6.852zm-4.696 73.65v-48.46h9.497v48.462h-9.497zm22.773 0v-72.944h9.599v72.945h-9.6zm46.365 0v-71.432h44.015v9.168h-34.007v21.964h30.84v9.269h-30.84v21.863h34.007v9.169h-44.015zm66.381-24.684l-17.667-23.777h11.643l12.05 17.027L596.1 220.42h11.336l-17.463 23.777c2.961 3.93 15.113 20.755 18.075 24.685H596.51l-12.664-17.833-12.459 17.833H559.95l18.28-24.685zm77.719 10.881c-2.758 8.564-10.621 15.315-22.058 15.315-13.174 0-24.714-9.471-24.714-25.893 0-15.214 11.132-25.592 23.488-25.592 15.115 0 23.59 10.278 23.59 25.39 0 1.209-.102 2.418-.204 3.022h-36.97c.205 8.666 6.536 14.711 14.809 14.711 7.965 0 11.948-4.333 13.786-9.773l8.272 2.82zm-9.702-15.415c-.204-6.951-4.8-12.391-13.48-12.391-8.067 0-12.97 6.145-13.378 12.391h26.858zm24.919 4.938c0 11.081 7.047 17.026 15.012 17.026 9.191 0 12.562-6.145 13.685-9.974l8.476 3.627c-2.35 6.952-9.396 15.113-22.16 15.113-14.297 0-24.816-11.083-24.816-25.792 0-15.114 10.722-25.693 24.713-25.693 13.072 0 19.812 8.06 21.855 15.416l-8.68 3.627c-1.226-4.736-4.801-10.277-13.175-10.277-7.761 0-14.91 5.642-14.91 16.927zm62.707 25.792c-11.437 0-18.382-8.463-18.382-19.445v-30.529h9.6v29.118c0 6.65 3.064 12.494 11.132 12.494 7.76 0 11.641-5.039 11.641-12.393V220.42h9.6v39.495c0 3.828.307 7.254.51 8.967h-9.191c-.204-1.108-.408-3.829-.408-5.844-2.655 5.037-8.783 7.355-14.502 7.355zm49.736-49.973h10.621v8.564h-10.62v25.188c0 4.433 1.837 6.65 6.84 6.65 1.226 0 2.963-.202 3.78-.404v8.061c-.817.302-3.268.906-6.535.906-8.376 0-13.686-5.037-13.686-13.802v-26.6h-9.394v-8.564h2.655c5.31 0 7.556-3.224 7.556-7.455v-7.859h8.783v15.315zm25.021-25.189c3.88 0 6.945 3.024 6.945 6.853 0 3.727-3.065 6.75-6.945 6.75-3.779 0-6.842-3.023-6.842-6.75a6.819 6.819 0 016.842-6.852zm-4.698 73.65v-48.46h9.498v48.462h-9.498zm45.242 0h-9.702l-19.914-48.461h10.825l13.99 37.379 14.094-37.38h10.314l-19.607 48.463zm66.994-13.803c-2.758 8.564-10.621 15.315-22.058 15.315-13.174 0-24.714-9.471-24.714-25.893 0-15.214 11.132-25.592 23.488-25.592 15.114 0 23.59 10.278 23.59 25.39 0 1.209-.102 2.418-.204 3.022h-36.97c.206 8.666 6.537 14.711 14.81 14.711 7.965 0 11.947-4.333 13.786-9.773l8.272 2.82zm-9.702-15.415c-.205-6.951-4.8-12.391-13.48-12.391-8.068 0-12.97 6.145-13.378 12.391h26.858z"/></svg>