<?xml version="1.0" encoding="UTF-8"?><!DOCTYPE svg PUBLIC "-//W3C//DTD SVG 1.1//EN" "http://www.w3.org/Graphics/SVG/1.1/DTD/svg11.dtd"><svg xmlns="http://www.w3.org/2000/svg" xmlns:xlink="http://www.w3.org/1999/xlink"><defs><style>.cls-2{fill:none;stroke:#3cbfae;stroke-linecap:round;stroke-linejoin:round;stroke-width:1.5px}</style><clipPath id="a"><path data-name="Path 4621" d="M0 32.866h62.384V-22.74H0z" transform="translate(0 22.74)"/></clipPath><clipPath id="a"><path data-name="Path 4616" d="M0 27.148h59.175v-52.536H0z" transform="translate(0 25.388)" stroke="#707070"/></clipPath></defs><symbol id="wmre-social-linkedin-hex" viewBox="0 0 51 50"><path fill-rule="evenodd" clip-rule="evenodd" d="M50.1 26.4l-7.2 18.9c-.4 1-1.3 1.6-2.4 1.6H10.6c-1.1-.1-2-.7-2.4-1.6L.9 26.4c-.3-1-.3-2.1 0-3.1L8.1 4.4c.4-1 1.3-1.6 2.4-1.6h29.9c1 0 2 .7 2.4 1.7L50 23.4c.4.9.4 2 .1 3zm1.2-3.5L44.1 4c-.6-1.5-2-2.4-3.6-2.4h-30c-1.6 0-3 1-3.6 2.5l-7.2 19c-.4 1.3-.4 2.6 0 3.9l7.2 18.9c.6 1.4 2 2.4 3.6 2.5h29.9c1.6 0 3-1 3.6-2.5l7.3-19c.5-1.4.5-2.7 0-4l-.6.2c0 .1.6-.2.6-.2z"/><path d="M35.7 13.3H15.2c-.9 0-1.7.8-1.7 1.7v20c0 .9.8 1.7 1.7 1.7h20.5c.9 0 1.7-.8 1.7-1.7V15c.1-1-.7-1.7-1.7-1.7zM20.8 33.4h-3.5V22.2h3.5v11.2zM19 20.7c-1.1 0-2.1-.9-2.1-2s.9-2 2.1-2c1.1 0 2.1.9 2.1 2s-1 2-2.1 2zm15.1 12.7h-3.5v-5.7c0-1.2-.2-2.7-1.8-2.7-1.8 0-2.1 1.3-2.1 2.8v5.6H23V22.2h3.4v1.5c.5-.9 1.6-1.8 3.4-1.8 3.5 0 4.2 2.2 4.3 5.2v6.3z"/></symbol><symbol id="wmre-social-linkedin" viewBox="0 0 256 256"><path d="M237.714 0H18.23C8.17 0 0 8.286 0 18.457v219.086C0 247.714 8.171 256 18.229 256h219.485c10.057 0 18.286-8.286 18.286-18.457V18.457C256 8.286 247.771 0 237.714 0zM77.43 219.429h-38V97.257h38V219.43zM58.4 80.57c-12.171 0-22-9.885-22-22 0-12.114 9.829-22 22-22 12.115 0 22 9.886 22 22 0 12.172-9.829 22-22 22zm161.2 138.86h-37.943l-.01-62.52c-.128-13.591-1.663-29.31-19.704-29.31-19.277 0-22.638 14.668-22.794 30.178l-.006 61.652H101.2V97.257h36.4v16.686h.514c5.086-9.6 17.486-19.714 35.943-19.714 37.76 0 45.296 24.477 45.537 56.589l.006 68.61z" fill-rule="nonzero"/></symbol><symbol id="wmre-social-mail" viewBox="0 0 53.097 48.395"><g id="Group_8017" data-name="Group 8017" transform="translate(-351.943 -17394.506)"><path id="Path_4804" data-name="Path 4804" d="M403.687 17416.922l-7.235-19.328a3.379 3.379 0 00-3.027-2.088h-29.906a3.379 3.379 0 00-3.024 2.088l-7.198 19.328a5.493 5.493 0 000 3.563l7.234 19.328a3.379 3.379 0 003.023 2.088h29.911a3.379 3.379 0 003.023-2.088l7.237-19.328a5.742 5.742 0 00-.036-3.563" stroke-width="2" fill="none" stroke="#3cbfae"/><g id="Group_7948" data-name="Group 7948" transform="translate(793.276 17366.021)"><g id="Group_7947" data-name="Group 7947" transform="translate(-428.267 36.274)"><g id="Group_7946" data-name="Group 7946" transform="translate(3.991 2.974)"><path id="Path_5308" data-name="Path 5308" class="cls-2" d="M-416.1 57.822V47.5a2.362 2.362 0 012.474-2.21h13.588a2.362 2.362 0 012.474 2.21l.066 10.817" transform="translate(416.1 -45.29)"/><g id="Group_7945" data-name="Group 7945" transform="translate(3.331 5.046)"><path id="Line_1984" data-name="Line 1984" class="cls-2" d="M0 0h12.796"/><path id="Line_1985" data-name="Line 1985" class="cls-2" transform="translate(0 3.991)" d="M0 0h12.796"/><path id="Line_1986" data-name="Line 1986" class="cls-2" transform="translate(0 1.946)" d="M0 0h12.796"/></g></g><path id="Path_5309" data-name="Path 5309" class="cls-2" d="M-400.176 96.518l-11.279-11.279a2.361 2.361 0 00-3.43.165L-425.9 96.419" transform="translate(426.659 -68.644)"/><path id="Path_5310" data-name="Path 5310" class="cls-2" d="M-391.017 39.016l-2.276-2.078a2.361 2.361 0 00-3.43.165l-2.078 1.979" transform="translate(408.496 -36.274)"/><path id="Path_5311" data-name="Path 5311" class="cls-2" d="M-405.543 59.09l4.551 4.551v14.017a2.505 2.505 0 01-2.506 2.506h-22.2a2.505 2.505 0 01-2.507-2.506V63.872c0-.033 3.793-3.958 3.793-3.958" transform="translate(428.2 -51.565)"/><path id="Path_5312" data-name="Path 5312" class="cls-2" d="M-428.2 73.59l8.839 7.355z" transform="translate(428.2 -61.283)"/><path id="Line_1987" data-name="Line 1987" class="cls-2" transform="translate(18.535 12.373)" d="M8.575 0L0 7.289"/></g></g></g></symbol><symbol id="wmre-social-twitter-hex" viewBox="0 0 51 50"><path fill-rule="evenodd" clip-rule="evenodd" d="M50.1 26.4l-7.2 18.9c-.4 1-1.3 1.6-2.4 1.6H10.6c-1.1-.1-2-.7-2.4-1.6L.9 26.4c-.3-1-.3-2.1 0-3.1L8.1 4.4c.4-1 1.3-1.6 2.4-1.6h29.9c1 0 2 .7 2.4 1.7L50 23.4c.4.9.4 2 .1 3zm1.2-3.5L44.1 4c-.6-1.5-2-2.4-3.6-2.4h-30c-1.6 0-3 1-3.6 2.5l-7.2 19c-.4 1.3-.4 2.6 0 3.9l7.2 18.9c.6 1.4 2 2.4 3.6 2.5h29.9c1.6 0 3-1 3.6-2.5l7.3-19c.5-1.4.5-2.7 0-4l-.6.2c0 .1.6-.2.6-.2z"/><path d="M21.1 35.1c9 0 14-7.3 14-13.7v-.6c1-.7 1.8-1.5 2.4-2.5-.9.4-1.8.7-2.8.7 1-.6 1.8-1.6 2.2-2.6-1 .6-2 .9-3.1 1.2-1.8-1.9-5-2-6.9-.2-1.3 1.2-1.8 2.9-1.4 4.6-3.9-.2-7.6-2-10.1-5-1.3 2.2-.6 5 1.5 6.4-.8 0-1.6-.2-2.2-.6v.1c0 2.3 1.7 4.2 3.9 4.7-.7.2-1.5.2-2.2.1.6 2 2.5 3.3 4.6 3.3-2 1.3-4.1 2-6.3 2-.4 0-.8 0-1.2-.1 2.3 1.4 4.9 2.2 7.6 2.2"/></symbol><symbol id="wmre-social-twitter" viewBox="0 0 256 256"><path d="M80.68 238c96.341 0 149.448-79.924 149.448-149.306 0-2.38 0-4.42-.34-6.802C240 74.41 249.19 65.227 256 54.684c-9.532 4.081-19.745 7.142-30.298 8.163 10.894-6.462 19.404-17.006 23.15-28.91-10.214 6.123-21.448 10.204-33.363 12.585-19.744-21.087-53.106-22.107-74.212-2.381-13.617 12.584-19.405 31.97-14.98 50.335-42.211-2.04-81.7-22.106-108.253-54.756-13.958 23.807-6.809 54.756 16.34 70.06-8.17-.34-16.68-2.38-23.83-6.461v.68c0 24.828 17.702 46.254 41.873 51.356-7.83 2.04-16 2.38-23.83 1.02 6.808 21.427 26.553 36.051 49.021 36.391-18.723 14.625-41.532 22.447-65.021 22.447-4.085 0-8.17-.34-12.596-1.02C24.17 229.838 52.426 238 80.68 238" fill-rule="nonzero"/></symbol><symbol id="wmre-general-arrow-down" viewBox="0 0 36.326 36.326"><path data-name="Path 4726" d="M36.326 18.163l-3.2-3.2L20.434 27.63V0h-4.541v27.63L3.201 14.962l-3.2 3.2 18.162 18.164z"/></symbol><symbol id="wmre-general-arrow" viewBox="0 0 34.507 23.747"><g data-name="Group 7708"><path data-name="Path 5234" d="M34.037 10.739L23.769.47A1.604 1.604 0 0021.5 2.739l7.53 7.53H1.6a1.604 1.604 0 000 3.209h27.429l-7.529 7.53a1.604 1.604 0 002.269 2.269l10.268-10.269a1.6 1.6 0 000-2.269z"/></g></symbol><symbol id="wmre-general-checkmark" viewBox="0 0 256 256"><path d="M92.722 206.779l-71.5-71.475c-4.296-4.294-4.296-11.257 0-15.551l15.556-15.551c4.295-4.295 11.26-4.295 15.556 0L100.5 152.35 203.666 49.22c4.295-4.294 11.26-4.294 15.556 0l15.556 15.552c4.296 4.294 4.296 11.256 0 15.55l-126.5 126.457c-4.296 4.295-11.26 4.295-15.556 0z"/></symbol><symbol id="wmre-general-chevron-right" viewBox="0 0 256 256"><path d="M64.258 8.921l-11.26 10.82c-2.664 2.56-2.664 6.712 0 9.274L155.762 128 52.999 226.985c-2.665 2.56-2.665 6.713 0 9.274l11.26 10.82c2.664 2.561 6.985 2.561 9.65 0l119.092-114.442c2.665-2.56 2.665-6.713 0-9.274L73.91 8.921c-2.665-2.561-6.986-2.561-9.65 0z"/></symbol><symbol id="wmre-general-circle-hollow" viewBox="0 0 256 256"><path d="M128 0C57.29 0 0 57.29 0 128c0 70.71 57.29 128 128 128 70.71 0 128-57.29 128-128C256 57.29 198.71 0 128 0zm0 231c-56.907 0-103-46.093-103-103S71.093 25 128 25s103 46.093 103 103-46.093 103-103 103z"/></symbol><symbol id="wmre-general-circle-solid" viewBox="0 0 256 256"><path d="M0 128c0 70.708 57.313 128 128 128s128-57.292 128-128C256 57.333 198.687 0 128 0S0 57.333 0 128z"/></symbol><symbol id="wmre-general-download" viewBox="0 0 23.572 26.519"><path data-name="Path 5097" d="M17.679 14.733h-4.42V0h-2.947v14.733h-4.42l5.893 5.893zM0 23.572v2.947h23.572v-2.947z"/></symbol><symbol id="wmre-general-expand" viewBox="0 0 256 256"><path d="M245.333 106.667h-96v-96C149.333 4.773 144.56 0 138.667 0h-21.334c-5.893 0-10.666 4.773-10.666 10.667v96h-96C4.773 106.667 0 111.44 0 117.333v21.334c0 5.893 4.773 10.666 10.667 10.666h96v96c0 5.894 4.773 10.667 10.666 10.667h21.334c5.893 0 10.666-4.773 10.666-10.667v-96h96c5.894 0 10.667-4.773 10.667-10.666v-21.334c0-5.893-4.773-10.666-10.667-10.666z"/></symbol><symbol id="wmre-general-external-link" viewBox="0 0 30.283 25.957"><g data-name="Group 6650"><path data-name="Path 4907" d="M23.254 15.141h-1.082a.524.524 0 00-.389.152.524.524 0 00-.152.388v5.408a2.6 2.6 0 01-.794 1.91 2.6 2.6 0 01-1.91.794H4.866a2.6 2.6 0 01-1.91-.794 2.6 2.6 0 01-.794-1.91V7.03a2.6 2.6 0 01.794-1.909 2.6 2.6 0 011.91-.794h11.9a.527.527 0 00.389-.152.527.527 0 00.152-.389V2.703a.526.526 0 00-.152-.388.526.526 0 00-.389-.152h-11.9a4.688 4.688 0 00-3.439 1.428A4.688 4.688 0 000 7.03v14.06a4.687 4.687 0 001.428 3.439 4.689 4.689 0 003.439 1.428h14.06a4.688 4.688 0 003.439-1.428 4.686 4.686 0 001.428-3.439v-5.407a.526.526 0 00-.152-.389.525.525 0 00-.388-.153z"/><path data-name="Path 4908" d="M29.962.321a1.04 1.04 0 00-.76-.321H20.55a1.039 1.039 0 00-.76.321 1.04 1.04 0 00-.321.76 1.04 1.04 0 00.321.761l2.974 2.974-11.018 11.018a.534.534 0 00-.169.388.535.535 0 00.169.389l1.927 1.926a.535.535 0 00.389.169.534.534 0 00.389-.169L25.469 7.519l2.974 2.974a1.04 1.04 0 00.76.321 1.04 1.04 0 00.761-.321 1.039 1.039 0 00.321-.76V1.081a1.039 1.039 0 00-.323-.76z"/></g></symbol><symbol id="wmre-general-location-pin" viewBox="0 0 256 256"><path d="M118.031 250.835C44.625 145.515 31 134.706 31 96c0-53.02 43.428-96 97-96s97 42.98 97 96c0 38.706-13.625 49.515-87.031 154.835-4.817 6.887-15.121 6.886-19.938 0zM128.5 136c22.368 0 40.5-17.909 40.5-40s-18.132-40-40.5-40S88 73.909 88 96s18.132 40 40.5 40z"/></symbol><symbol id="wmre-general-media" viewBox="0 0 62.384 55.606"><g data-name="Group 6413" clip-path="url(#a)"><g data-name="Group 6409"><path data-name="Path 4617" d="M58.312 31.313l-7.37-3.277a1.443 1.443 0 01-.856-1.318v-2.024a10.745 10.745 0 004.067-8.414v-2.851a2.627 2.627 0 001.357-2.3v-.276A10.772 10.772 0 0044.75.097h-2.711a10.772 10.772 0 00-10.76 10.759v2.507a2.664 2.664 0 001.013 2.134 2.827 2.827 0 00.342.223v.56a10.739 10.739 0 004.069 8.414v2.025a1.445 1.445 0 01-.858 1.318l-7.37 3.277a6.7 6.7 0 00-3.974 6.116v16.81a1.27 1.27 0 001.269 1.269 1.271 1.271 0 001.269-1.269V37.429a4.3 4.3 0 01.024-.438l3.4 3.4a2.778 2.778 0 01.816 1.972V54.24a1.268 1.268 0 001.269 1.27 1.267 1.267 0 001.267-1.269V42.363a5.3 5.3 0 00-1.562-3.77l-4.049-4.047a4.141 4.141 0 011.3-.915l7.245-3.22 5.379 5.375V54.24a1.269 1.269 0 002.538 0V35.786l5.372-5.375 7.248 3.22a4.131 4.131 0 011.3.915l-4.052 4.047a5.309 5.309 0 00-1.563 3.77V54.24a1.269 1.269 0 002.538 0V42.363a2.786 2.786 0 01.819-1.975l3.4-3.4a4.3 4.3 0 01.024.438V54.24a1.268 1.268 0 102.536 0V37.429a6.7 6.7 0 00-3.974-6.116M35.172 16.28v-.572a7.49 7.49 0 002.3-1.494 1.27 1.27 0 00.075-1.793 1.27 1.27 0 00-1.793-.071 4.564 4.564 0 01-1.883 1.125.228.228 0 01-.034 0 .288.288 0 01-.022-.112v-2.507a8.232 8.232 0 018.223-8.221h2.712a8.23 8.23 0 018.221 8.221v.276a.079.079 0 01-.059.083c-7.594 1.502-11.404-1.327-12.684-2.611a1.272 1.272 0 00-1.795 0 1.272 1.272 0 000 1.795c3.936 3.937 9.682 4.008 13.181 3.587v2.294a8.221 8.221 0 01-16.442 0m8.221 10.759a10.69 10.69 0 004.155-.836v.516a3.967 3.967 0 00.562 2.032l-4.717 4.712-4.714-4.712a3.971 3.971 0 00.56-2.032v-.516a10.69 10.69 0 004.155.836"/></g><g data-name="Group 6410"><path data-name="Path 4618" d="M61.017 55.606a1.369 1.369 0 01-1.367-1.366V37.427v-.218l-3.25 3.247a2.686 2.686 0 00-.79 1.91V54.24a1.366 1.366 0 11-2.731 0V42.367a5.4 5.4 0 011.589-3.842l3.977-3.985a4.045 4.045 0 00-1.2-.824l-7.188-3.189-5.3 5.3V54.24a1.366 1.366 0 11-2.731 0V35.826l-5.3-5.3-7.182 3.194a4.056 4.056 0 00-1.2.824l3.981 3.981a5.389 5.389 0 011.592 3.842V54.24a1.369 1.369 0 01-1.37 1.366 1.369 1.369 0 01-1.37-1.366V42.367a2.676 2.676 0 00-.79-1.91L27.14 37.21c0 .076-.007.149-.007.218V54.24a1.369 1.369 0 01-1.367 1.367 1.367 1.367 0 01-1.362-1.367V37.427a6.793 6.793 0 014.032-6.2l7.37-3.277a1.344 1.344 0 00.8-1.228V24.74a10.811 10.811 0 01-4.069-8.462v-.5a2.367 2.367 0 01-.306-.2 2.764 2.764 0 01-1.054-2.212v-2.509A10.87 10.87 0 0142.037 0h2.712a10.87 10.87 0 0110.857 10.857v.276a2.717 2.717 0 01-1.357 2.352v2.793a10.811 10.811 0 01-4.067 8.462v1.98a1.342 1.342 0 00.8 1.228l7.37 3.277a6.8 6.8 0 014.032 6.2V54.24a1.369 1.369 0 01-1.367 1.367m-1.218-18.83l.022.205a4.269 4.269 0 01.024.445V54.24a1.171 1.171 0 102.343 0V37.427a6.6 6.6 0 00-3.917-6.025l-7.37-3.277a1.542 1.542 0 01-.914-1.405v-2.072l.037-.029a10.613 10.613 0 004.03-8.341v-2.9l.051-.029a2.528 2.528 0 001.306-2.211v-.276A10.674 10.674 0 0044.749.196h-2.712a10.674 10.674 0 00-10.66 10.661v2.509a2.567 2.567 0 00.974 2.054 2.48 2.48 0 00.33.213l.051.027v.619a10.621 10.621 0 004.03 8.341l.037.029v2.071a1.542 1.542 0 01-.915 1.406l-7.37 3.277a6.6 6.6 0 00-3.915 6.025V54.24a1.171 1.171 0 001.169 1.171 1.173 1.173 0 001.172-1.171V37.427c0-.134.01-.281.024-.445l.022-.205 3.543 3.541a2.884 2.884 0 01.848 2.049V54.24a1.173 1.173 0 001.17 1.17 1.173 1.173 0 001.171-1.17V42.367a5.205 5.205 0 00-1.536-3.7l-4.115-4.115.066-.071a4.229 4.229 0 011.333-.941l7.311-3.245 5.451 5.451V54.24a1.17 1.17 0 102.34 0V35.745l5.451-5.451.061.027 7.248 3.22a4.207 4.207 0 011.33.934l.068.071-4.118 4.115a5.205 5.205 0 00-1.536 3.7V54.24a1.171 1.171 0 102.343 0V42.367a2.876 2.876 0 01.849-2.049zm-16.405-3.174l-4.839-4.839.039-.064a3.9 3.9 0 00.548-1.98v-.666l.134.059a10.594 10.594 0 004.118.827 10.6 10.6 0 004.115-.827l.137-.059v.666a3.89 3.89 0 00.546 1.98l.039.064zm-4.595-4.868l4.595 4.592 4.592-4.592a4.06 4.06 0 01-.535-2.015v-.372a10.756 10.756 0 01-4.057.792 10.728 10.728 0 01-4.057-.792v.372a4.07 4.07 0 01-.538 2.015m4.595-4.135a8.33 8.33 0 01-8.317-8.322v-.638l.061-.024a7.367 7.367 0 002.27-1.476 1.159 1.159 0 00.377-.812 1.159 1.159 0 00-.311-.841 1.17 1.17 0 00-1.653-.066 4.648 4.648 0 01-1.924 1.148l-.108.02-.042-.066a.419.419 0 01-.029-.156v-2.509a8.33 8.33 0 018.319-8.318h2.712a8.33 8.33 0 018.319 8.321v.276a.176.176 0 01-.134.179c-7.645 1.507-11.484-1.347-12.78-2.643a1.173 1.173 0 00-1.655 0 1.166 1.166 0 00-.342.827 1.171 1.171 0 00.342.829c3.988 3.988 9.923 3.942 13.1 3.56l.11-.012v2.4a8.33 8.33 0 01-8.315 8.323m-8.126-8.825v.5a8.136 8.136 0 008.126 8.129 8.134 8.134 0 008.123-8.126v-2.181c-3.242.374-9.155.372-13.156-3.631a1.348 1.348 0 01-.4-.966 1.356 1.356 0 01.4-.966 1.366 1.366 0 011.929 0c1.274 1.274 5.047 4.074 12.583 2.59v-.267a8.136 8.136 0 00-8.126-8.126h-2.71a8.134 8.134 0 00-8.123 8.126v2.5a4.553 4.553 0 001.773-1.079 1.372 1.372 0 011.932.076 1.362 1.362 0 01.358.986 1.362 1.362 0 01-.438.949 7.655 7.655 0 01-2.271 1.486m-1.4-2.308v.007-.007z"/></g><g data-name="Group 6411"><path data-name="Path 4619" d="M22.97 21.702a9.4 9.4 0 00-4.311-7.899 5.394 5.394 0 00.244-1.591 5.342 5.342 0 00-5.335-5.336 5.342 5.342 0 00-5.336 5.336 5.344 5.344 0 00.242 1.591 9.4 9.4 0 00-4.309 7.9v2.712a9.4 9.4 0 004.067 7.735v2.789a1.436 1.436 0 01-.8 1.289l-4.389 2.193a5.312 5.312 0 00-2.947 4.773v11.045a1.267 1.267 0 001.267 1.269 1.267 1.267 0 001.269-1.269V43.746l2.069 2.064a2.788 2.788 0 01.819 1.981v6.448a1.267 1.267 0 001.267 1.269 1.268 1.268 0 001.265-1.269V47.79a5.3 5.3 0 00-1.56-3.773L3.62 41.139c-.017-.015-.032-.027-.044-.039a2.789 2.789 0 01.6-.408l4.389-2.2a4.106 4.106 0 00.628-.391l3.1 3.1v13.038a1.269 1.269 0 002.538 0V41.208l3.1-3.1a4.229 4.229 0 00.628.391l1.21.606a1.269 1.269 0 101.142-2.266l-1.21-.606a1.431 1.431 0 01-.798-1.294v-2.79a9.4 9.4 0 004.067-7.737zm-12.202-9.49a2.8 2.8 0 012.8-2.8 2.8 2.8 0 012.8 2.8 2.783 2.783 0 01-.044.5 9.424 9.424 0 00-5.5 0 2.8 2.8 0 01-.049-.5m2.793 2.627a6.873 6.873 0 016.864 6.863v.46a7.957 7.957 0 01-8.561-2.578 1.273 1.273 0 00-1.913-.134 8.29 8.29 0 01-3.252 2.076 6.872 6.872 0 016.862-6.687m2.929 21.119l-2.929 2.932-2.932-2.932a4.03 4.03 0 00.132-1.019v-1.546a9.469 9.469 0 005.6 0v1.546a4.03 4.03 0 00.132 1.017m-2.932-4.676a6.875 6.875 0 01-6.866-6.866v-.262a10.193 10.193 0 004.076-2.032 11.32 11.32 0 002.352 1.712 10.077 10.077 0 004.847 1.252 10.536 10.536 0 002.445-.293 6.874 6.874 0 01-6.854 6.49"/></g><g data-name="Group 6412"><path data-name="Path 4620" d="M13.566 55.605a1.367 1.367 0 01-1.367-1.364V41.246l-3.012-3.009a4.148 4.148 0 01-.575.35l-4.387 2.2a2.566 2.566 0 00-.5.325l2.838 2.834a5.4 5.4 0 011.585 3.844v6.448a1.365 1.365 0 11-2.729 0V47.79a2.686 2.686 0 00-.792-1.91l-1.9-1.9v10.258a1.369 1.369 0 01-1.367 1.367 1.367 1.367 0 01-1.364-1.367V43.196a5.41 5.41 0 013-4.861l4.394-2.189a1.341 1.341 0 00.743-1.2v-2.744a9.514 9.514 0 01-4.066-7.789v-2.711a9.466 9.466 0 014.294-7.937 5.387 5.387 0 01-.227-1.553 5.44 5.44 0 015.433-5.433A5.44 5.44 0 0119 12.212a5.42 5.42 0 01-.227 1.55 9.477 9.477 0 014.294 7.94v2.712A9.511 9.511 0 0119 32.202v2.738a1.335 1.335 0 00.748 1.206l1.21.6a1.367 1.367 0 01-.614 2.59 1.352 1.352 0 01-.609-.144l-1.21-.606a4.343 4.343 0 01-.575-.35l-3.017 3.01v12.995a1.367 1.367 0 01-1.367 1.364m-4.36-17.628l3.189 3.191v13.073a1.171 1.171 0 002.343 0V41.168l3.189-3.191.068.051a4.143 4.143 0 00.614.384l1.21.6a1.143 1.143 0 00.521.125 1.171 1.171 0 00.526-2.218l-1.21-.606a1.528 1.528 0 01-.851-1.377v-2.837l.042-.029a9.313 9.313 0 004.025-7.656v-2.712a9.281 9.281 0 00-4.265-7.815l-.064-.039.022-.071a5.286 5.286 0 00.24-1.565 5.244 5.244 0 00-5.238-5.238 5.244 5.244 0 00-5.238 5.238 5.238 5.238 0 00.24 1.565l.022.071-.064.039a9.277 9.277 0 00-4.265 7.815v2.712a9.316 9.316 0 004.025 7.656l.042.029v2.841a1.534 1.534 0 01-.851 1.377L3.091 38.51a5.211 5.211 0 00-2.9 4.685v11.043a1.171 1.171 0 001.169 1.171 1.173 1.173 0 001.171-1.171V43.509l2.237 2.237a2.884 2.884 0 01.849 2.049v6.448a1.17 1.17 0 102.34 0V47.79a5.2 5.2 0 00-1.531-3.7l-3-2.988.081-.071a2.877 2.877 0 01.626-.423l4.387-2.193a4 4 0 00.614-.384zm4.36 1.049l-3.039-3.039.015-.054a4 4 0 00.13-.993v-1.682l.127.042a9.379 9.379 0 005.539 0l.125-.042v1.682a3.9 3.9 0 00.13.993l.015.054zm-2.818-3.098l2.818 2.818 2.822-2.818a4.094 4.094 0 01-.122-.988v-1.416a9.567 9.567 0 01-5.4 0v1.416a4.17 4.17 0 01-.122.988m2.822-4.55a6.973 6.973 0 01-6.964-6.965v-.34l.078-.017a10.106 10.106 0 004.035-2.01l.066-.054.061.059a11.284 11.284 0 002.333 1.695 9.961 9.961 0 007.223.951l.127-.032v.132a6.965 6.965 0 01-6.954 6.58m-6.773-7.149v.186a6.777 6.777 0 006.768 6.768 6.766 6.766 0 006.749-6.267 10.125 10.125 0 01-7.233-1 11.345 11.345 0 01-2.311-1.669 10.26 10.26 0 01-3.973 1.982m11.16-1.582a8.174 8.174 0 01-6.167-3 1.152 1.152 0 00-.853-.465 1.17 1.17 0 00-.91.337 8.423 8.423 0 01-3.294 2.1l-.132.044v-.139a7.006 7.006 0 016.959-6.783 6.971 6.971 0 016.964 6.962v.533l-.071.02a8.45 8.45 0 01-2.5.391m-7.1-3.665h.1a1.364 1.364 0 011 .54 7.824 7.824 0 008.387 2.563v-.386a6.775 6.775 0 00-6.769-6.766 6.81 6.81 0 00-6.764 6.457 8.33 8.33 0 003.081-2.008 1.366 1.366 0 01.966-.4m-.115-6.143l-.02-.108a2.787 2.787 0 01-.049-.518 2.9 2.9 0 012.9-2.9 2.9 2.9 0 012.9 2.9 3.027 3.027 0 01-.044.518l-.022.108-.1-.032a9.336 9.336 0 00-5.448 0zm2.827-.636a9.536 9.536 0 012.675.384 2.7 2.7 0 00.024-.374 2.7 2.7 0 00-2.7-2.7 2.7 2.7 0 00-2.7 2.7 2.5 2.5 0 00.027.374 9.456 9.456 0 012.673-.384"/></g></g></symbol><symbol id="wmre-general-search" viewBox="0 0 233 234"><path d="M99.874 0c55.16 0 99.874 44.742 99.874 99.934 0 21.939-7.065 42.226-19.043 58.709l47.528 47.557c6.357 6.36 6.357 16.67 0 23.03-6.352 6.356-16.654 6.36-23.01.007a14.785 14.785 0 01-.006-.007l-47.67-47.698c-16.29 11.548-36.19 18.336-57.673 18.336C44.715 199.868 0 155.126 0 99.934S44.715 0 99.874 0zm0 31.979c-37.508 0-67.914 30.424-67.914 67.955 0 37.53 30.406 67.955 67.914 67.955s67.915-30.425 67.915-67.955-30.407-67.955-67.915-67.955z"/></symbol><symbol id="wmre-general-speech" viewBox="0 0 59.175 52.536"><g data-name="Group 7315"><g data-name="Group 6407" clip-path="url(#a)"><g data-name="Group 6405"><path data-name="Path 4614" d="M23.399 2.504c-11.522 0-20.896 7.34-20.896 16.354 0 4.9 2.322 7.675 4.37 10.121l.248.3.029.886a23.586 23.586 0 01-.476 6.593 22.572 22.572 0 005.547-2.684l.964-.592.453.11.726.178a35.936 35.936 0 009.242 1.333c12.778 0 20.689-8.433 20.689-16.244 0-9.018-9.374-16.354-20.9-16.354M3.474 40.16l.544-1.995a22.052 22.052 0 00.888-7.928v-.114C2.773 27.567.26 24.358.26 18.858.26 8.602 10.642.258 23.401.258s23.14 8.345 23.14 18.6c0 8.892-8.77 18.486-22.935 18.486a37.9 37.9 0 01-9.778-1.4 10.24 10.24 0 00-.265-.066l-.163.1a27.89 27.89 0 01-7.959 3.553zm53.219 11.984l-1.908-.656a15.886 15.886 0 01-4.232-1.989 7.012 7.012 0 01-.178-.112c-5.546 1.306-11.874 1.912-17.293-2.7a1.125 1.125 0 111.459-1.714c4.784 4.071 10.4 3.427 15.76 2.119l.455-.11.4.244c.213.13.406.25.581.36a14.562 14.562 0 001.958 1.091 18.7 18.7 0 01-.06-2.932l.025-.877.25-.3c2.069-2.469 2.982-4.9 2.717-7.224a8.826 8.826 0 00-3.808-5.925 1.122 1.122 0 011.349-1.794 10.988 10.988 0 014.687 7.462c.329 2.86-.673 5.757-2.974 8.617v.108a13.739 13.739 0 00.366 4.36z" stroke="#707070"/></g><g data-name="Group 6406"><path data-name="Path 4615" d="M23.399 2.504c-11.522 0-20.896 7.34-20.896 16.354 0 4.9 2.322 7.675 4.37 10.121l.248.3.029.886a23.586 23.586 0 01-.476 6.593 22.572 22.572 0 005.547-2.684l.964-.592.453.11.726.178a35.936 35.936 0 009.242 1.333c12.778 0 20.689-8.433 20.689-16.244 0-9.018-9.374-16.354-20.9-16.354M3.474 40.16l.544-1.995a22.052 22.052 0 00.888-7.928v-.114C2.773 27.567.26 24.358.26 18.858.26 8.602 10.642.258 23.401.258s23.14 8.345 23.14 18.6c0 8.892-8.77 18.486-22.935 18.486a37.9 37.9 0 01-9.778-1.4 10.24 10.24 0 00-.265-.066l-.163.1a27.89 27.89 0 01-7.959 3.553zm53.219 11.984l-1.908-.656a15.886 15.886 0 01-4.232-1.989 7.012 7.012 0 01-.178-.112c-5.546 1.306-11.874 1.912-17.293-2.7a1.125 1.125 0 111.459-1.714c4.784 4.071 10.4 3.427 15.76 2.119l.455-.11.4.244c.213.13.406.25.581.36a14.562 14.562 0 001.958 1.091 18.7 18.7 0 01-.06-2.932l.025-.877.25-.3c2.069-2.469 2.982-4.9 2.717-7.224a8.826 8.826 0 00-3.808-5.925 1.122 1.122 0 011.349-1.794 10.988 10.988 0 014.687 7.462c.329 2.86-.673 5.757-2.974 8.617v.108a13.739 13.739 0 00.366 4.36z" stroke="#fff" stroke-width=".25"/></g></g></g></symbol><symbol id="wmre-general-view-map" viewBox="0 0 47.369 43.193"><g data-name="Group 6876"><g data-name="Group 6866"><path data-name="Path 37" d="M32.763 11.913l-.173.032-5.778 2.24-6.492-2.272-6.1 2.056a.545.545 0 00-.39.519v16.36a.536.536 0 00.541.541l.173-.032 5.778-2.24 6.492 2.272 6.1-2.056a.545.545 0 00.39-.519v-16.36a.536.536 0 00-.541-.541zm-5.951 17.31L20.32 26.94V14.077l6.492 2.283z" fill="#3cbfae"/><path data-name="Path 4802" d="M46.055 20.015L39.632 2.854A3 3 0 0036.947 1H10.391a3 3 0 00-2.685 1.854L1.315 20.015a4.877 4.877 0 000 3.164l6.423 17.16a3 3 0 002.684 1.854h26.554a3 3 0 002.684-1.854l6.423-17.161a5.1 5.1 0 00-.032-3.164" fill="none" stroke="#3cbfae" stroke-width="2"/></g></g></symbol><symbol id="wmre-general-view-tiles" viewBox="0 0 47.369 43.193"><g data-name="Group 6877"><path data-name="Path 4671" d="M13.377 21.363h6.148v-7.378h-6.148zm0 8.608h6.148v-7.378h-6.148zm7.378 0h6.148v-7.378h-6.148zm7.378 0h6.144v-7.378h-6.148zm-7.378-8.608h6.148v-7.378h-6.148zm7.378-7.378v7.378h6.144v-7.378z" fill="#3cbfae"/><path data-name="Path 4900" d="M46.055 20.015L39.632 2.854A3 3 0 0036.947 1H10.391a3 3 0 00-2.685 1.854L1.315 20.015a4.877 4.877 0 000 3.164l6.423 17.16a3 3 0 002.684 1.854h26.554a3 3 0 002.684-1.854l6.423-17.161a5.1 5.1 0 00-.032-3.164" fill="none" stroke="#3cbfae" stroke-width="2"/></g></symbol><symbol id="wmre-general-warning-triangle" viewBox="0 0 256 256"><path d="M252.13 207.787c8.171 13.872-2.086 31.213-18.407 31.213H21.274c-16.352 0-26.562-17.368-18.406-31.213L109.094 27.4c8.175-13.88 28.652-13.854 36.813 0L252.13 207.787zM127.5 170.492c-11.247 0-20.364 8.93-20.364 19.946 0 11.015 9.117 19.945 20.364 19.945s20.365-8.93 20.365-19.946c0-11.015-9.118-19.945-20.365-19.945zM108.166 98.8l3.284 58.969c.153 2.76 2.483 4.92 5.304 4.92h21.492c2.821 0 5.15-2.16 5.304-4.92l3.284-58.969c.167-2.98-2.256-5.486-5.304-5.486h-28.06c-3.048 0-5.47 2.506-5.304 5.486z"/></symbol></svg>